<?xml version="1.0" encoding="UTF-8" standalone="no"?><svg xmlns="http://www.w3.org/2000/svg" xmlns:xlink="http://www.w3.org/1999/xlink" contentScriptType="application/ecmascript" contentStyleType="text/css" height="450px" preserveAspectRatio="none" style="width:586px;height:450px;" version="1.1" viewBox="0 0 586 450" width="586px" zoomAndPan="magnify"><defs><filter height="300%" id="f1nvcmp13w5w67" width="300%" x="-1" y="-1"><feGaussianBlur result="blurOut" stdDeviation="2.0"/><feColorMatrix in="blurOut" result="blurOut2" type="matrix" values="0 0 0 0 0 0 0 0 0 0 0 0 0 0 0 0 0 0 .4 0"/><feOffset dx="4.0" dy="4.0" in="blurOut2" result="blurOut3"/><feBlend in="SourceGraphic" in2="blurOut3" mode="normal"/></filter></defs><g><!--MD5=[b83b38d96c1b55f89b594f1f6d48380d]
cluster GROMACS--><polygon fill="#FFFFFF" filter="url(#f1nvcmp13w5w67)" points="392.5,235,477.5,235,484.5,257.2969,540.5,257.2969,540.5,334,392.5,334,392.5,235" style="stroke: #000000; stroke-width: 1.5;"/><line style="stroke: #000000; stroke-width: 1.5;" x1="392.5" x2="484.5" y1="257.2969" y2="257.2969"/><text fill="#000000" font-family="sans-serif" font-size="14" font-weight="bold" lengthAdjust="spacingAndGlyphs" textLength="79" x="396.5" y="249.9951">GROMACS</text><!--MD5=[8eac272d9516a21cd4c9a0141f0c28ed]
class GROMACS_CLI--><rect fill="#FEFECE" filter="url(#f1nvcmp13w5w67)" height="48" id="GROMACS_CLI" style="stroke: #A80036; stroke-width: 1.5;" width="116" x="408.5" y="270"/><ellipse cx="423.5" cy="286" fill="#B4A7E5" rx="11" ry="11" style="stroke: #A80036; stroke-width: 1.0;"/><path d="M419.4219,281.7656 L419.4219,279.6094 L426.8125,279.6094 L426.8125,281.7656 L424.3438,281.7656 L424.3438,289.8438 L426.8125,289.8438 L426.8125,292 L419.4219,292 L419.4219,289.8438 L421.8906,289.8438 L421.8906,281.7656 L419.4219,281.7656 Z "/><text fill="#000000" font-family="sans-serif" font-size="12" font-style="italic" lengthAdjust="spacingAndGlyphs" textLength="84" x="437.5" y="290.1543">GROMACS_CLI</text><line style="stroke: #A80036; stroke-width: 1.5;" x1="409.5" x2="523.5" y1="302" y2="302"/><line style="stroke: #A80036; stroke-width: 1.5;" x1="409.5" x2="523.5" y1="310" y2="310"/><!--MD5=[8ffb91e9be558c0e6b007c554622bff8]
class RunManager--><rect fill="#FEFECE" filter="url(#f1nvcmp13w5w67)" height="188.8516" id="RunManager" style="stroke: #A80036; stroke-width: 1.5;" width="206" x="176.5" y="8"/><ellipse cx="235.75" cy="24" fill="#ADD1B2" rx="11" ry="11" style="stroke: #A80036; stroke-width: 1.0;"/><path d="M238.7188,29.6406 Q238.1406,29.9375 237.5,30.0781 Q236.8594,30.2344 236.1563,30.2344 Q233.6563,30.2344 232.3281,28.5938 Q231.0156,26.9375 231.0156,23.8125 Q231.0156,20.6875 232.3281,19.0313 Q233.6563,17.375 236.1563,17.375 Q236.8594,17.375 237.5,17.5313 Q238.1563,17.6875 238.7188,17.9844 L238.7188,20.7031 Q238.0938,20.125 237.5,19.8594 Q236.9063,19.5781 236.2813,19.5781 Q234.9375,19.5781 234.25,20.6563 Q233.5625,21.7188 233.5625,23.8125 Q233.5625,25.9063 234.25,26.9844 Q234.9375,28.0469 236.2813,28.0469 Q236.9063,28.0469 237.5,27.7813 Q238.0938,27.5 238.7188,26.9219 L238.7188,29.6406 Z "/><text fill="#000000" font-family="sans-serif" font-size="12" lengthAdjust="spacingAndGlyphs" textLength="79" x="256.25" y="28.1543">RunManager</text><line style="stroke: #A80036; stroke-width: 1.5;" x1="177.5" x2="381.5" y1="40" y2="40"/><text fill="#000000" font-family="sans-serif" font-size="11" lengthAdjust="spacingAndGlyphs" textLength="82" x="182.5" y="54.2104">config : Config</text><text fill="#000000" font-family="sans-serif" font-size="11" lengthAdjust="spacingAndGlyphs" textLength="80" x="182.5" y="67.0151">tasks : Queue</text><text fill="#000000" font-family="sans-serif" font-size="11" lengthAdjust="spacingAndGlyphs" textLength="29" x="182.5" y="79.8198">state</text><text fill="#000000" font-family="sans-serif" font-size="11" lengthAdjust="spacingAndGlyphs" textLength="60" x="182.5" y="92.6245">file history</text><text fill="#000000" font-family="sans-serif" font-size="11" lengthAdjust="spacingAndGlyphs" textLength="82" x="182.5" y="105.4292">chosen_recipe</text><line style="stroke: #A80036; stroke-width: 1.5;" x1="177.5" x2="381.5" y1="112.0234" y2="112.0234"/><text fill="#000000" font-family="sans-serif" font-size="11" lengthAdjust="spacingAndGlyphs" textLength="27" x="182.5" y="126.2339">run()</text><text fill="#000000" font-family="sans-serif" font-size="11" lengthAdjust="spacingAndGlyphs" textLength="50" x="182.5" y="139.0386">run_MD()</text><text fill="#000000" font-family="sans-serif" font-size="11" lengthAdjust="spacingAndGlyphs" textLength="99" x="182.5" y="151.8433">query_reactions()</text><text fill="#000000" font-family="sans-serif" font-size="11" lengthAdjust="spacingAndGlyphs" textLength="97" x="182.5" y="164.6479">decide_reaction()</text><text fill="#000000" font-family="sans-serif" font-size="11" lengthAdjust="spacingAndGlyphs" textLength="194" x="182.5" y="177.4526">execute_recipe(ConversionRecipe)</text><text fill="#000000" font-family="sans-serif" font-size="11" lengthAdjust="spacingAndGlyphs" textLength="32" x="182.5" y="190.2573">next()</text><!--MD5=[4bf8aff396996fef456cd268939daa24]
class Config--><rect fill="#FEFECE" filter="url(#f1nvcmp13w5w67)" height="99.2188" id="Config" style="stroke: #A80036; stroke-width: 1.5;" width="158" x="417.5" y="53"/><ellipse cx="472.75" cy="69" fill="#ADD1B2" rx="11" ry="11" style="stroke: #A80036; stroke-width: 1.0;"/><path d="M475.7188,74.6406 Q475.1406,74.9375 474.5,75.0781 Q473.8594,75.2344 473.1563,75.2344 Q470.6563,75.2344 469.3281,73.5938 Q468.0156,71.9375 468.0156,68.8125 Q468.0156,65.6875 469.3281,64.0313 Q470.6563,62.375 473.1563,62.375 Q473.8594,62.375 474.5,62.5313 Q475.1563,62.6875 475.7188,62.9844 L475.7188,65.7031 Q475.0938,65.125 474.5,64.8594 Q473.9063,64.5781 473.2813,64.5781 Q471.9375,64.5781 471.25,65.6563 Q470.5625,66.7188 470.5625,68.8125 Q470.5625,70.9063 471.25,71.9844 Q471.9375,73.0469 473.2813,73.0469 Q473.9063,73.0469 474.5,72.7813 Q475.0938,72.5 475.7188,71.9219 L475.7188,74.6406 Z "/><text fill="#000000" font-family="sans-serif" font-size="12" lengthAdjust="spacingAndGlyphs" textLength="39" x="493.25" y="73.1543">Config</text><line style="stroke: #A80036; stroke-width: 1.5;" x1="418.5" x2="574.5" y1="85" y2="85"/><text fill="#000000" font-family="sans-serif" font-size="11" lengthAdjust="spacingAndGlyphs" textLength="53" x="423.5" y="99.2104">file paths</text><text fill="#000000" font-family="sans-serif" font-size="11" lengthAdjust="spacingAndGlyphs" textLength="83" x="423.5" y="112.0151">task sequence</text><text fill="#000000" font-family="sans-serif" font-size="11" lengthAdjust="spacingAndGlyphs" textLength="12" x="423.5" y="124.8198">...</text><line style="stroke: #A80036; stroke-width: 1.5;" x1="418.5" x2="574.5" y1="131.4141" y2="131.4141"/><text fill="#000000" font-family="sans-serif" font-size="11" lengthAdjust="spacingAndGlyphs" textLength="146" x="423.5" y="145.6245">__init__(configuration_file)</text><!--MD5=[dd0c9a8faef956caa07cc9a928fbe7e6]
class ConversionRecipe--><rect fill="#FEFECE" filter="url(#f1nvcmp13w5w67)" height="73.6094" id="ConversionRecipe" style="stroke: #A80036; stroke-width: 1.5;" width="143" x="37" y="257"/><ellipse cx="52" cy="273" fill="#ADD1B2" rx="11" ry="11" style="stroke: #A80036; stroke-width: 1.0;"/><path d="M54.9688,278.6406 Q54.3906,278.9375 53.75,279.0781 Q53.1094,279.2344 52.4063,279.2344 Q49.9063,279.2344 48.5781,277.5938 Q47.2656,275.9375 47.2656,272.8125 Q47.2656,269.6875 48.5781,268.0313 Q49.9063,266.375 52.4063,266.375 Q53.1094,266.375 53.75,266.5313 Q54.4063,266.6875 54.9688,266.9844 L54.9688,269.7031 Q54.3438,269.125 53.75,268.8594 Q53.1563,268.5781 52.5313,268.5781 Q51.1875,268.5781 50.5,269.6563 Q49.8125,270.7188 49.8125,272.8125 Q49.8125,274.9063 50.5,275.9844 Q51.1875,277.0469 52.5313,277.0469 Q53.1563,277.0469 53.75,276.7813 Q54.3438,276.5 54.9688,275.9219 L54.9688,278.6406 Z "/><text fill="#000000" font-family="sans-serif" font-size="12" lengthAdjust="spacingAndGlyphs" textLength="111" x="66" y="277.1543">ConversionRecipe</text><line style="stroke: #A80036; stroke-width: 1.5;" x1="38" x2="179" y1="289" y2="289"/><text fill="#000000" font-family="sans-serif" font-size="11" lengthAdjust="spacingAndGlyphs" textLength="24" x="43" y="303.2104">type</text><text fill="#000000" font-family="sans-serif" font-size="11" lengthAdjust="spacingAndGlyphs" textLength="51" x="43" y="316.0151">atom_idx</text><line style="stroke: #A80036; stroke-width: 1.5;" x1="38" x2="179" y1="322.6094" y2="322.6094"/><!--MD5=[ddc36e88a2144077ea4257ea6b073d34]
class Reaction--><rect fill="#FEFECE" filter="url(#f1nvcmp13w5w67)" height="60.8047" id="Reaction" style="stroke: #A80036; stroke-width: 1.5;" width="129" x="215" y="263.5"/><ellipse cx="248.9" cy="279.5" fill="#A9DCDF" rx="11" ry="11" style="stroke: #A80036; stroke-width: 1.0;"/><path d="M249.0094,274.8438 L247.8531,279.9219 L250.1813,279.9219 L249.0094,274.8438 Z M247.525,272.6094 L250.5094,272.6094 L253.8688,285 L251.4156,285 L250.65,281.9375 L247.3688,281.9375 L246.6188,285 L244.1813,285 L247.525,272.6094 Z "/><text fill="#000000" font-family="sans-serif" font-size="12" font-style="italic" lengthAdjust="spacingAndGlyphs" textLength="55" x="267.1" y="283.6543">Reaction</text><line style="stroke: #A80036; stroke-width: 1.5;" x1="216" x2="343" y1="295.5" y2="295.5"/><line style="stroke: #A80036; stroke-width: 1.5;" x1="216" x2="343" y1="303.5" y2="303.5"/><text fill="#000000" font-family="sans-serif" font-size="11" lengthAdjust="spacingAndGlyphs" textLength="117" x="221" y="317.7104">get_reaction_result()</text><!--MD5=[4285fdc6e6a51a600e72f80959553948]
class HAT--><rect fill="#FEFECE" filter="url(#f1nvcmp13w5w67)" height="48" id="HAT" style="stroke: #A80036; stroke-width: 1.5;" width="56" x="188.5" y="391"/><ellipse cx="203.5" cy="407" fill="#ADD1B2" rx="11" ry="11" style="stroke: #A80036; stroke-width: 1.0;"/><path d="M206.4688,412.6406 Q205.8906,412.9375 205.25,413.0781 Q204.6094,413.2344 203.9063,413.2344 Q201.4063,413.2344 200.0781,411.5938 Q198.7656,409.9375 198.7656,406.8125 Q198.7656,403.6875 200.0781,402.0313 Q201.4063,400.375 203.9063,400.375 Q204.6094,400.375 205.25,400.5313 Q205.9063,400.6875 206.4688,400.9844 L206.4688,403.7031 Q205.8438,403.125 205.25,402.8594 Q204.6563,402.5781 204.0313,402.5781 Q202.6875,402.5781 202,403.6563 Q201.3125,404.7188 201.3125,406.8125 Q201.3125,408.9063 202,409.9844 Q202.6875,411.0469 204.0313,411.0469 Q204.6563,411.0469 205.25,410.7813 Q205.8438,410.5 206.4688,409.9219 L206.4688,412.6406 Z "/><text fill="#000000" font-family="sans-serif" font-size="12" lengthAdjust="spacingAndGlyphs" textLength="24" x="217.5" y="411.1543">HAT</text><line style="stroke: #A80036; stroke-width: 1.5;" x1="189.5" x2="243.5" y1="423" y2="423"/><line style="stroke: #A80036; stroke-width: 1.5;" x1="189.5" x2="243.5" y1="431" y2="431"/><!--MD5=[11d5dae097a6b13f0e05ed8ff928fd65]
class HomolyticBreak--><rect fill="#FEFECE" filter="url(#f1nvcmp13w5w67)" height="48" id="HomolyticBreak" style="stroke: #A80036; stroke-width: 1.5;" width="128" x="279.5" y="391"/><ellipse cx="294.5" cy="407" fill="#ADD1B2" rx="11" ry="11" style="stroke: #A80036; stroke-width: 1.0;"/><path d="M297.4688,412.6406 Q296.8906,412.9375 296.25,413.0781 Q295.6094,413.2344 294.9063,413.2344 Q292.4063,413.2344 291.0781,411.5938 Q289.7656,409.9375 289.7656,406.8125 Q289.7656,403.6875 291.0781,402.0313 Q292.4063,400.375 294.9063,400.375 Q295.6094,400.375 296.25,400.5313 Q296.9063,400.6875 297.4688,400.9844 L297.4688,403.7031 Q296.8438,403.125 296.25,402.8594 Q295.6563,402.5781 295.0313,402.5781 Q293.6875,402.5781 293,403.6563 Q292.3125,404.7188 292.3125,406.8125 Q292.3125,408.9063 293,409.9844 Q293.6875,411.0469 295.0313,411.0469 Q295.6563,411.0469 296.25,410.7813 Q296.8438,410.5 297.4688,409.9219 L297.4688,412.6406 Z "/><text fill="#000000" font-family="sans-serif" font-size="12" lengthAdjust="spacingAndGlyphs" textLength="96" x="308.5" y="411.1543">HomolyticBreak</text><line style="stroke: #A80036; stroke-width: 1.5;" x1="280.5" x2="406.5" y1="423" y2="423"/><line style="stroke: #A80036; stroke-width: 1.5;" x1="280.5" x2="406.5" y1="431" y2="431"/><!--MD5=[2c642f17a5d827f98a20a4460ad56dfc]
class ChangeManager--><rect fill="#FEFECE" filter="url(#f1nvcmp13w5w67)" height="60.8047" id="ChangeManager" style="stroke: #A80036; stroke-width: 1.5;" width="135" x="6" y="72"/><ellipse cx="21" cy="88" fill="#ADD1B2" rx="11" ry="11" style="stroke: #A80036; stroke-width: 1.0;"/><path d="M23.9688,93.6406 Q23.3906,93.9375 22.75,94.0781 Q22.1094,94.2344 21.4063,94.2344 Q18.9063,94.2344 17.5781,92.5938 Q16.2656,90.9375 16.2656,87.8125 Q16.2656,84.6875 17.5781,83.0313 Q18.9063,81.375 21.4063,81.375 Q22.1094,81.375 22.75,81.5313 Q23.4063,81.6875 23.9688,81.9844 L23.9688,84.7031 Q23.3438,84.125 22.75,83.8594 Q22.1563,83.5781 21.5313,83.5781 Q20.1875,83.5781 19.5,84.6563 Q18.8125,85.7188 18.8125,87.8125 Q18.8125,89.9063 19.5,90.9844 Q20.1875,92.0469 21.5313,92.0469 Q22.1563,92.0469 22.75,91.7813 Q23.3438,91.5 23.9688,90.9219 L23.9688,93.6406 Z "/><text fill="#000000" font-family="sans-serif" font-size="12" lengthAdjust="spacingAndGlyphs" textLength="103" x="35" y="92.1543">ChangeManager</text><line style="stroke: #A80036; stroke-width: 1.5;" x1="7" x2="140" y1="104" y2="104"/><line style="stroke: #A80036; stroke-width: 1.5;" x1="7" x2="140" y1="112" y2="112"/><text fill="#000000" font-family="sans-serif" font-size="11" lengthAdjust="spacingAndGlyphs" textLength="118" x="12" y="126.2104">modify_connectivity()</text><!--MD5=[8d7edc55af6061fcc831e37c5e508dd7]
link Reaction to HAT--><path d="M263.76,324.72 C256,339.39 246.52,357.3 238.09,373.23 " fill="none" id="Reaction-&gt;HAT" style="stroke: #A80036; stroke-width: 1.0;"/><polygon fill="none" points="244.22,376.6,228.68,391,231.85,370.05,244.22,376.6" style="stroke: #A80036; stroke-width: 1.0;"/><!--MD5=[ada935222d86b79a55df4cc1fc2bbc28]
link Reaction to HomolyticBreak--><path d="M295.48,324.72 C303.37,339.39 313.01,357.3 321.57,373.23 " fill="none" id="Reaction-&gt;HomolyticBreak" style="stroke: #A80036; stroke-width: 1.0;"/><polygon fill="none" points="327.82,370.07,331.13,391,315.49,376.7,327.82,370.07" style="stroke: #A80036; stroke-width: 1.0;"/><!--MD5=[c588ed03a5d363b1489344558ddd8dd4]
link RunManager to Config--><path d="M382.91,102.5 C394.3,102.5 405.69,102.5 417.08,102.5 " fill="none" id="RunManager-Config" style="stroke: #A80036; stroke-width: 1.0;"/><!--MD5=[996995c30abb94956b17821081024700]
link RunManager to GROMACS_CLI--><path d="M371.9,197.14 C398.59,224.18 425.39,251.34 443.62,269.81 " fill="none" id="RunManager-GROMACS_CLI" style="stroke: #A80036; stroke-width: 1.0;"/><!--MD5=[9d16f540dc9e52e354670ebf8e5cfa91]
link RunManager to Reaction--><path d="M279.5,197.14 C279.5,221.2 279.5,245.35 279.5,263.39 " fill="none" id="RunManager-Reaction" style="stroke: #A80036; stroke-width: 1.0;"/><!--MD5=[79eeeb36a37716a216141016993ea146]
link ConversionRecipe to Reaction--><path d="M180.31,294 C191.8,294 203.3,294 214.79,294 " fill="none" id="ConversionRecipe-Reaction" style="stroke: #A80036; stroke-width: 1.0;"/><!--MD5=[9f4749dfd4e2d77c811bde584397f241]
link ChangeManager to RunManager--><path d="M141.09,102.5 C152.81,102.5 164.52,102.5 176.24,102.5 " fill="none" id="ChangeManager-RunManager" style="stroke: #A80036; stroke-width: 1.0;"/><!--MD5=[16becea0f5ec2c15bacfef78987316a3]
link Config to GROMACS_CLI--><!--MD5=[a68119d5b1bd92a5661cf89c6c252c12]
@startuml
class           RunManager{
config : Config
tasks : Queue
state
file history
chosen_recipe
run()
run_MD()
query_reactions()
decide_reaction()
execute_recipe(ConversionRecipe)
next()
}
class          Config{
file paths
task sequence
...
__init__(configuration_file)
}
class           ConversionRecipe{
type
atom_idx
}

abstract class           Reaction{
get_reaction_result()
}
class           HAT{
}
class           HomolyticBreak{
}
class           ChangeManager{
modify_connectivity()
}

package GROMACS{
interface GROMACS_CLI{
}
}

Reaction - -|> HAT
Reaction - -|> HomolyticBreak
RunManager -right- Config
RunManager -right- GROMACS_CLI 
RunManager - - Reaction 
ConversionRecipe - Reaction
ChangeManager - RunManager
Config -[hidden]-> GROMACS_CLI
@enduml

PlantUML version 1.2020.02(Sun Mar 01 11:22:07 CET 2020)
(GPL source distribution)
Java Runtime: OpenJDK Runtime Environment
JVM: OpenJDK 64-Bit Server VM
Java Version: 11.0.19+7-post-Ubuntu-0ubuntu122.04.1
Operating System: Linux
Default Encoding: UTF-8
Language: en
Country: US
--></g></svg>