<?xml version="1.0" encoding="UTF-8" standalone="no"?>
<!-- Created with Inkscape (http://www.inkscape.org/) -->

<svg
   width="324.94257mm"
   height="353.44943mm"
   viewBox="0 0 324.94257 353.44943"
   version="1.1"
   id="svg40039"
   sodipodi:docname="dice.svg"
   inkscape:version="1.1.2 (0a00cf5339, 2022-02-04)"
   inkscape:export-filename="/hits/fast/mbm/buhrjk/phd/kimmdy-examples/deps/kimmdy/www/dice.png"
   inkscape:export-xdpi="96"
   inkscape:export-ydpi="96"
   xmlns:inkscape="http://www.inkscape.org/namespaces/inkscape"
   xmlns:sodipodi="http://sodipodi.sourceforge.net/DTD/sodipodi-0.dtd"
   xmlns="http://www.w3.org/2000/svg"
   xmlns:svg="http://www.w3.org/2000/svg">
  <sodipodi:namedview
     id="namedview40041"
     pagecolor="#ffffff"
     bordercolor="#666666"
     borderopacity="1.0"
     inkscape:pageshadow="2"
     inkscape:pageopacity="0.0"
     inkscape:pagecheckerboard="0"
     inkscape:document-units="mm"
     showgrid="false"
     inkscape:zoom="0.2147575"
     inkscape:cx="304.99516"
     inkscape:cy="-90.800087"
     inkscape:window-width="1268"
     inkscape:window-height="1360"
     inkscape:window-x="1284"
     inkscape:window-y="35"
     inkscape:window-maximized="0"
     inkscape:current-layer="layer1" />
  <defs
     id="defs40036" />
  <g
     inkscape:label="Layer 1"
     inkscape:groupmode="layer"
     id="layer1"
     transform="translate(71.202178,21.182468)">
    <path
       d="m 79.031841,186.22488 c 0,-15.83259 12.833413,-28.66485 28.664039,-28.66485 h 114.65088 c 15.83277,0 28.66512,12.83226 28.66512,28.66485 v 114.64875 c 0,15.83258 -12.83235,28.66482 -28.66512,28.66482 H 107.69588 c -15.830626,0 -28.664039,-12.83224 -28.664039,-28.66482 z"
       stroke="#000000"
       stroke-width="5.45703"
       stroke-miterlimit="8"
       fill="#ffffff"
       fill-rule="evenodd"
       id="path25"
       inkscape:export-filename="/hits/fast/mbm/buhrjk/phd/kimmdy-examples/deps/kimmdy/www/favicon.png"
       inkscape:export-xdpi="96"
       inkscape:export-ydpi="96"
       sodipodi:nodetypes="sssssssss" />
    <path
       d="m 157.4759,249.62934 -36.42166,-43.06866 c -5.02897,-5.94784 -6.94429,-12.59414 -4.27834,-14.84839 2.66596,-2.25687 8.90381,0.73821 13.9325,6.68334 l 36.42193,43.06872 c 5.0287,5.94781 6.94429,12.59676 4.27834,14.85101 -2.66596,2.25422 -8.90381,-0.73822 -13.93277,-6.68602 z"
       fill-rule="evenodd"
       id="path27"
       inkscape:export-filename="/hits/fast/mbm/buhrjk/phd/kimmdy-examples/deps/kimmdy/www/favicon.png"
       inkscape:export-xdpi="96"
       inkscape:export-ydpi="96"
       sodipodi:nodetypes="cccccsc"
       style="stroke-width:0.264583" />
    <path
       d="m 130.7084,198.39563 c 5.02896,5.94784 6.94429,12.59679 4.27833,14.85101 -2.66595,2.25425 -8.9038,-0.74083 -13.93249,-6.68596"
       stroke="#000000"
       stroke-width="1.81901"
       stroke-miterlimit="8"
       fill="none"
       fill-rule="evenodd"
       id="path29"
       inkscape:export-filename="/hits/fast/mbm/buhrjk/phd/kimmdy-examples/deps/kimmdy/www/favicon.png"
       inkscape:export-xdpi="96"
       inkscape:export-ydpi="96"
       sodipodi:nodetypes="csc" />
    <path
       d="m 157.4759,249.62934 -36.42166,-43.06866 c -5.02897,-5.94784 -6.94429,-12.59414 -4.27834,-14.84839 2.66596,-2.25687 8.90381,0.73821 13.9325,6.68334 l 36.42193,43.06872 c 5.0287,5.94781 6.94429,12.59676 4.27834,14.85101 -2.66596,2.25422 -8.90381,-0.73822 -13.93277,-6.68602 z"
       stroke="#000000"
       stroke-width="1.81901"
       stroke-miterlimit="8"
       fill="none"
       fill-rule="evenodd"
       id="path31"
       inkscape:export-filename="/hits/fast/mbm/buhrjk/phd/kimmdy-examples/deps/kimmdy/www/favicon.png"
       inkscape:export-xdpi="96"
       inkscape:export-ydpi="96"
       sodipodi:nodetypes="cccccsc" />
    <path
       d="m 205.08526,291.15024 -42.91589,-36.6023 c -5.92564,-5.05354 -8.89243,-11.30297 -6.62679,-13.95936 2.26564,-2.65642 8.90592,-0.7144 14.83129,4.33914 l 42.91618,36.6023 c 5.92669,5.05354 8.89267,11.30559 6.62784,13.96201 -2.26748,2.65639 -8.90593,0.7117 -14.83263,-4.34179 z"
       fill-rule="evenodd"
       id="path33"
       inkscape:export-filename="/hits/fast/mbm/buhrjk/phd/kimmdy-examples/deps/kimmdy/www/favicon.png"
       inkscape:export-xdpi="96"
       inkscape:export-ydpi="96"
       sodipodi:nodetypes="ccscccc"
       style="stroke-width:0.264583" />
    <path
       d="m 170.37387,244.92772 c 5.92564,5.05354 8.89243,11.30559 6.62679,13.96201 -2.26564,2.65639 -8.90591,0.7117 -14.83129,-4.34179"
       stroke="#000000"
       stroke-width="1.81901"
       stroke-miterlimit="8"
       fill="none"
       fill-rule="evenodd"
       id="path35"
       inkscape:export-filename="/hits/fast/mbm/buhrjk/phd/kimmdy-examples/deps/kimmdy/www/favicon.png"
       inkscape:export-xdpi="96"
       inkscape:export-ydpi="96"
       sodipodi:nodetypes="csc" />
    <path
       d="m 205.08526,291.15024 -42.91589,-36.6023 c -5.92564,-5.05354 -8.89243,-11.30297 -6.62679,-13.95936 2.26564,-2.65642 8.90592,-0.7144 14.83129,4.33914 l 42.91618,36.6023 c 5.92669,5.05354 8.89267,11.30559 6.62784,13.96201 -2.26748,2.65639 -8.90593,0.7117 -14.83263,-4.34179 z"
       stroke="#000000"
       stroke-width="1.81901"
       stroke-miterlimit="8"
       fill="none"
       fill-rule="evenodd"
       id="path37"
       inkscape:export-filename="/hits/fast/mbm/buhrjk/phd/kimmdy-examples/deps/kimmdy/www/favicon.png"
       inkscape:export-xdpi="96"
       inkscape:export-ydpi="96"
       sodipodi:nodetypes="ccscccc" />
    <path
       d="M 161.84287,258.50079 126.9685,294.4416 c -4.81518,4.96359 -11.26655,6.51405 -14.40928,3.46343 -3.14274,-3.05065 -1.78701,-9.5435 3.02817,-14.50705 l 34.87464,-35.94087 c 4.81517,-4.96089 11.26628,-6.51134 14.40901,-3.46337 3.14274,3.05062 1.78701,9.54611 -3.02817,14.50705 z"
       fill-rule="evenodd"
       id="path39"
       inkscape:export-filename="/hits/fast/mbm/buhrjk/phd/kimmdy-examples/deps/kimmdy/www/favicon.png"
       inkscape:export-xdpi="96"
       inkscape:export-ydpi="96"
       sodipodi:nodetypes="ccscccc"
       style="stroke-width:0.264583" />
    <path
       d="m 115.58739,283.39798 c 4.81517,-4.96091 11.26628,-6.51405 14.40901,-3.46337 3.14301,3.05062 1.78727,9.54346 -3.0279,14.50699"
       stroke="#000000"
       stroke-width="1.81901"
       stroke-miterlimit="8"
       fill="none"
       fill-rule="evenodd"
       id="path41"
       inkscape:export-filename="/hits/fast/mbm/buhrjk/phd/kimmdy-examples/deps/kimmdy/www/favicon.png"
       inkscape:export-xdpi="96"
       inkscape:export-ydpi="96"
       sodipodi:nodetypes="ccc" />
    <path
       d="M 161.84287,258.50079 126.9685,294.4416 c -4.81518,4.96359 -11.26655,6.51405 -14.40928,3.46343 -3.14274,-3.05065 -1.78701,-9.5435 3.02817,-14.50705 l 34.87464,-35.94087 c 4.81517,-4.96089 11.26628,-6.51134 14.40901,-3.46337 3.14274,3.05062 1.78701,9.54611 -3.02817,14.50705 z"
       stroke="#000000"
       stroke-width="1.81901"
       stroke-miterlimit="8"
       fill="none"
       fill-rule="evenodd"
       id="path43"
       inkscape:export-filename="/hits/fast/mbm/buhrjk/phd/kimmdy-examples/deps/kimmdy/www/favicon.png"
       inkscape:export-xdpi="96"
       inkscape:export-ydpi="96"
       sodipodi:nodetypes="ccscccc" />
    <path
       d="m -63.913258,87.800032 c -8.573791,-13.29658 -4.745273,-31.025703 8.551191,-39.599224 l 96.298742,-62.094527 c 13.296437,-8.573521 31.025727,-4.745019 39.599595,8.5512933 l 62.09485,96.2975977 c 8.57386,13.296318 4.74532,31.026498 -8.55112,39.598968 l -96.298764,62.0948 C 24.4848,201.22138 6.7555095,197.39286 -1.8183575,184.09763 Z"
       stroke="#000000"
       stroke-width="5.45703"
       stroke-miterlimit="8"
       fill="#ffffff"
       fill-rule="evenodd"
       id="path45"
       inkscape:export-filename="/hits/fast/mbm/buhrjk/phd/kimmdy-examples/deps/kimmdy/www/dice.png"
       inkscape:export-xdpi="96"
       inkscape:export-ydpi="96"
       sodipodi:nodetypes="ccccccccc" />
    <path
       d="m 204.6831,205.31713 -30.27589,39.89105 c -4.18044,5.5086 -10.39686,7.82899 -13.88514,5.18054 -3.48829,-2.64851 -2.92711,-9.25777 1.25307,-14.76634 l 30.2767,-39.89107 c 4.18041,-5.5086 10.3955,-7.82635 13.88541,-5.18052 3.48721,2.64845 2.92629,9.26039 -1.25415,14.76634 z"
       fill-rule="evenodd"
       id="path47"
       inkscape:export-filename="/hits/fast/mbm/buhrjk/phd/kimmdy-examples/deps/kimmdy/www/favicon.png"
       inkscape:export-xdpi="96"
       inkscape:export-ydpi="96"
       sodipodi:nodetypes="ccscccc"
       style="stroke-width:0.264583" />
    <path
       d="m 161.77514,235.62238 c 4.18017,-5.5086 10.39685,-7.82635 13.88514,-5.18055 3.48828,2.64848 2.9271,9.26039 -1.25307,14.76635"
       stroke="#000000"
       stroke-width="1.81901"
       stroke-miterlimit="8"
       fill="none"
       fill-rule="evenodd"
       id="path49"
       inkscape:export-filename="/hits/fast/mbm/buhrjk/phd/kimmdy-examples/deps/kimmdy/www/favicon.png"
       inkscape:export-xdpi="96"
       inkscape:export-ydpi="96"
       sodipodi:nodetypes="ccc" />
    <path
       d="m 204.6831,205.31713 -30.27589,39.89105 c -4.18044,5.5086 -10.39686,7.82899 -13.88514,5.18054 -3.48829,-2.64851 -2.92711,-9.25777 1.25307,-14.76634 l 30.2767,-39.89107 c 4.18041,-5.5086 10.3955,-7.82635 13.88541,-5.18052 3.48721,2.64845 2.92629,9.26039 -1.25415,14.76634 z"
       stroke="#000000"
       stroke-width="1.81901"
       stroke-miterlimit="8"
       fill="none"
       fill-rule="evenodd"
       id="path51"
       inkscape:export-filename="/hits/fast/mbm/buhrjk/phd/kimmdy-examples/deps/kimmdy/www/favicon.png"
       inkscape:export-xdpi="96"
       inkscape:export-ydpi="96"
       sodipodi:nodetypes="ccscccc" />
    <path
       d="m 143.5905,245.40132 c 0,-10.81346 8.58815,-19.57908 19.18239,-19.57908 10.59423,0 19.18239,8.76562 19.18239,19.57908 0,10.81347 -8.58816,19.57906 -19.18239,19.57906 -10.59424,0 -19.18239,-8.76559 -19.18239,-19.57906 z"
       stroke="#000000"
       stroke-width="1.81901"
       stroke-miterlimit="8"
       fill-rule="evenodd"
       id="path53"
       inkscape:export-filename="/hits/fast/mbm/buhrjk/phd/kimmdy-examples/deps/kimmdy/www/favicon.png"
       inkscape:export-xdpi="96"
       inkscape:export-ydpi="96"
       sodipodi:nodetypes="sssss" />
    <path
       d="m 108.13615,196.98279 c 0,-8.18351 6.87074,-14.81662 15.34592,-14.81662 8.47543,0 15.3459,6.63311 15.3459,14.81662 0,8.1835 -6.87047,14.81661 -15.3459,14.81661 -8.47518,0 -15.34592,-6.63311 -15.34592,-14.81661 z"
       stroke="#000000"
       stroke-width="1.81901"
       stroke-miterlimit="8"
       fill-rule="evenodd"
       id="path55"
       inkscape:export-filename="/hits/fast/mbm/buhrjk/phd/kimmdy-examples/deps/kimmdy/www/favicon.png"
       inkscape:export-xdpi="96"
       inkscape:export-ydpi="96"
       sodipodi:nodetypes="sssss" />
    <path
       d="m 96.229845,290.24799 c 0,-11.90882 9.654425,-21.56344 21.563655,-21.56344 11.90921,0 21.56365,9.65462 21.56365,21.56344 0,11.90886 -9.65444,21.56346 -21.56365,21.56346 -11.90923,0 -21.563655,-9.6546 -21.563655,-21.56346 z"
       stroke="#000000"
       stroke-width="1.81901"
       stroke-miterlimit="8"
       fill-rule="evenodd"
       id="path57"
       inkscape:export-filename="/hits/fast/mbm/buhrjk/phd/kimmdy-examples/deps/kimmdy/www/favicon.png"
       inkscape:export-xdpi="96"
       inkscape:export-ydpi="96"
       sodipodi:nodetypes="sssss" />
    <path
       d="m 182.21986,190.7651 c 0,-11.90884 9.59385,-21.56346 21.43136,-21.56346 11.83487,0 21.43136,9.65462 21.43136,21.56346 0,11.90885 -9.59649,21.56344 -21.43136,21.56344 -11.83751,0 -21.43136,-9.65459 -21.43136,-21.56344 z"
       stroke="#000000"
       stroke-width="1.81901"
       stroke-miterlimit="8"
       fill-rule="evenodd"
       id="path59"
       inkscape:export-filename="/hits/fast/mbm/buhrjk/phd/kimmdy-examples/deps/kimmdy/www/favicon.png"
       inkscape:export-xdpi="96"
       inkscape:export-ydpi="96"
       sodipodi:nodetypes="sssss" />
    <path
       d="m 197.30117,286.80846 c 0,-8.255 6.87128,-14.94891 15.34594,-14.94891 8.47463,0 15.34589,6.69391 15.34589,14.94891 0,8.25494 -6.87126,14.94887 -15.34589,14.94887 -8.47466,0 -15.34594,-6.69393 -15.34594,-14.94887 z"
       stroke="#000000"
       stroke-width="1.81901"
       stroke-miterlimit="8"
       fill-rule="evenodd"
       id="path61"
       inkscape:export-filename="/hits/fast/mbm/buhrjk/phd/kimmdy-examples/deps/kimmdy/www/favicon.png"
       inkscape:export-xdpi="96"
       inkscape:export-ydpi="96"
       sodipodi:nodetypes="sssss" />
    <path
       d="M 33.75717,77.86682 47.506047,23.163396 c 1.898131,-7.553029 6.182021,-12.985959 9.568174,-12.134797 3.386156,0.850895 4.592132,7.663622 2.694001,15.21665 L 46.019345,80.948676 C 44.120952,88.501704 39.837059,93.934635 36.451168,93.083473 33.065017,92.232575 31.858774,85.419848 33.75717,77.86682 Z"
       fill-rule="evenodd"
       id="path63"
       inkscape:export-filename="/hits/fast/mbm/buhrjk/phd/kimmdy-examples/deps/kimmdy/www/dice.png"
       inkscape:export-xdpi="96"
       inkscape:export-ydpi="96"
       sodipodi:nodetypes="ccccccc"
       style="stroke-width:0.264583" />
    <path
       d="m 59.768222,26.245249 c -1.898393,7.553026 -6.182283,12.985957 -9.568439,12.135062 -3.386156,-0.851159 -4.59213,-7.663886 -2.693736,-15.216915"
       stroke="#000000"
       stroke-width="1.81901"
       stroke-miterlimit="8"
       fill="none"
       fill-rule="evenodd"
       id="path65"
       inkscape:export-filename="/hits/fast/mbm/buhrjk/phd/kimmdy-examples/deps/kimmdy/www/dice.png"
       inkscape:export-xdpi="96"
       inkscape:export-ydpi="96"
       sodipodi:nodetypes="ccc" />
    <path
       d="M 33.75717,77.86682 47.506047,23.163396 c 1.898131,-7.553029 6.182021,-12.985959 9.568174,-12.134797 3.386156,0.850895 4.592132,7.663622 2.694001,15.21665 L 46.019345,80.948676 C 44.120952,88.501704 39.837059,93.934635 36.451168,93.083473 33.065017,92.232575 31.858774,85.419848 33.75717,77.86682 Z"
       stroke="#000000"
       stroke-width="1.81901"
       stroke-miterlimit="8"
       fill="none"
       fill-rule="evenodd"
       id="path67"
       inkscape:export-filename="/hits/fast/mbm/buhrjk/phd/kimmdy-examples/deps/kimmdy/www/dice.png"
       inkscape:export-xdpi="96"
       inkscape:export-ydpi="96"
       sodipodi:nodetypes="ccccccc" />
    <path
       d="M 17.956703,144.87331 30.34826,89.847367 c 1.711071,-7.597476 5.85923,-13.134652 9.265226,-12.36763 3.406264,0.767025 4.780516,7.547737 3.069447,15.145477 L 30.291375,147.65141 c -1.710804,7.59881 -5.858963,13.13653 -9.265225,12.36924 -3.406,-0.76729 -4.780253,-7.54853 -3.069447,-15.14734 z"
       fill-rule="evenodd"
       id="path69"
       inkscape:export-filename="/hits/fast/mbm/buhrjk/phd/kimmdy-examples/deps/kimmdy/www/dice.png"
       inkscape:export-xdpi="96"
       inkscape:export-ydpi="96"
       sodipodi:nodetypes="ccccccc"
       style="stroke-width:0.264583" />
    <path
       d="M 42.682933,92.625214 C 40.972129,100.2227 36.823971,105.75987 33.417707,104.99285 30.01171,104.22609 28.637456,97.44511 30.34826,89.847367"
       stroke="#000000"
       stroke-width="1.81901"
       stroke-miterlimit="8"
       fill="none"
       fill-rule="evenodd"
       id="path71"
       inkscape:export-filename="/hits/fast/mbm/buhrjk/phd/kimmdy-examples/deps/kimmdy/www/dice.png"
       inkscape:export-xdpi="96"
       inkscape:export-ydpi="96"
       sodipodi:nodetypes="ccc" />
    <path
       d="M 17.956703,144.87331 30.34826,89.847367 c 1.711071,-7.597476 5.85923,-13.134652 9.265226,-12.36763 3.406264,0.767025 4.780516,7.547737 3.069447,15.145477 L 30.291375,147.65141 c -1.710804,7.59881 -5.858963,13.13653 -9.265225,12.36924 -3.406,-0.76729 -4.780253,-7.54853 -3.069447,-15.14734 z"
       stroke="#000000"
       stroke-width="1.81901"
       stroke-miterlimit="8"
       fill="none"
       fill-rule="evenodd"
       id="path73"
       inkscape:export-filename="/hits/fast/mbm/buhrjk/phd/kimmdy-examples/deps/kimmdy/www/dice.png"
       inkscape:export-xdpi="96"
       inkscape:export-ydpi="96"
       sodipodi:nodetypes="ccccccc" />
    <path
       d="m 19.474888,83.851935 c -0.0011,-10.805006 8.598474,-19.564794 19.208054,-19.566117 10.609579,-0.0011 19.211228,8.75714 19.212287,19.561884 0.0013,10.804742 -8.598475,19.564798 -19.208054,19.565858 -10.60958,10e-4 -19.211229,-8.756883 -19.212287,-19.561625 z"
       stroke="#000000"
       stroke-width="1.81901"
       stroke-miterlimit="8"
       fill-rule="evenodd"
       id="path75"
       inkscape:export-filename="/hits/fast/mbm/buhrjk/phd/kimmdy-examples/deps/kimmdy/www/dice.png"
       inkscape:export-xdpi="96"
       inkscape:export-ydpi="96"
       sodipodi:nodetypes="scccs" />
    <path
       d="m 7.1333345,151.40055 c -0.0011,-8.22584 6.8815845,-14.89331 15.3723715,-14.89331 8.491053,-0.003 15.375016,6.66483 15.37581,14.89067 0.0011,8.22322 -6.881582,14.89334 -15.372371,14.89334 -8.491051,0 -15.3750165,-6.66483 -15.3758105,-14.8907 z"
       stroke="#000000"
       stroke-width="1.81901"
       stroke-miterlimit="8"
       fill-rule="evenodd"
       id="path77"
       inkscape:export-filename="/hits/fast/mbm/buhrjk/phd/kimmdy-examples/deps/kimmdy/www/dice.png"
       inkscape:export-xdpi="96"
       inkscape:export-ydpi="96"
       sodipodi:nodetypes="cccsc" />
    <path
       d="M 38.834283,19.765633 C 38.833223,11.54083 45.715865,4.8722983 54.206916,4.8715043 62.697704,4.8704043 69.58167,11.53739 69.582729,19.762455 69.583523,27.987523 62.700879,34.655787 54.210091,34.656846 45.71904,34.657639 38.835077,27.990698 38.834283,19.765633 Z"
       stroke="#000000"
       stroke-width="1.81901"
       stroke-miterlimit="8"
       fill-rule="evenodd"
       id="path79"
       inkscape:export-filename="/hits/fast/mbm/buhrjk/phd/kimmdy-examples/deps/kimmdy/www/dice.png"
       inkscape:export-xdpi="96"
       inkscape:export-ydpi="96"
       sodipodi:nodetypes="ccccc" />
    <path
       d="m 53.884268,9.593811 c 4.730748,0.814348 9.031782,2.940371 12.583398,6.219508"
       stroke="#ffffff"
       stroke-width="1.81901"
       stroke-miterlimit="8"
       fill="none"
       fill-rule="evenodd"
       id="path81"
       inkscape:export-filename="/hits/fast/mbm/buhrjk/phd/kimmdy-examples/deps/kimmdy/www/dice.png"
       inkscape:export-xdpi="96"
       inkscape:export-ydpi="96"
       sodipodi:nodetypes="cc" />
    <path
       d="m 21.956269,141.36615 c 4.625888,1.27866 8.694004,3.82058 11.902016,7.43443"
       stroke="#ffffff"
       stroke-width="1.81901"
       stroke-miterlimit="8"
       fill="none"
       fill-rule="evenodd"
       id="path83"
       inkscape:export-filename="/hits/fast/mbm/buhrjk/phd/kimmdy-examples/deps/kimmdy/www/dice.png"
       inkscape:export-xdpi="96"
       inkscape:export-ydpi="96"
       sodipodi:nodetypes="cc" />
    <path
       d="m 119.74647,186.11511 c 4.79632,-0.17719 9.44196,1.01608 13.59107,3.49269"
       stroke="#ffffff"
       stroke-width="1.81901"
       stroke-miterlimit="8"
       fill="none"
       fill-rule="evenodd"
       id="path85"
       inkscape:export-filename="/hits/fast/mbm/buhrjk/phd/kimmdy-examples/deps/kimmdy/www/favicon.png"
       inkscape:export-xdpi="96"
       inkscape:export-ydpi="96"
       sodipodi:nodetypes="cc" />
    <path
       d="m 196.47038,175.96701 c 5.92405,-1.5531 12.06772,-0.86781 17.69808,1.97377"
       stroke="#ffffff"
       stroke-width="3.63802"
       stroke-miterlimit="8"
       fill="none"
       fill-rule="evenodd"
       id="path87"
       inkscape:export-filename="/hits/fast/mbm/buhrjk/phd/kimmdy-examples/deps/kimmdy/www/favicon.png"
       inkscape:export-xdpi="96"
       inkscape:export-ydpi="96"
       sodipodi:nodetypes="cc" />
    <path
       d="m 109.95094,275.44992 c 5.92379,-1.5531 12.06824,-0.86781 17.69913,1.97376"
       stroke="#ffffff"
       stroke-width="3.63802"
       stroke-miterlimit="8"
       fill="none"
       fill-rule="evenodd"
       id="path89"
       inkscape:export-filename="/hits/fast/mbm/buhrjk/phd/kimmdy-examples/deps/kimmdy/www/favicon.png"
       inkscape:export-xdpi="96"
       inkscape:export-ydpi="96"
       sodipodi:nodetypes="cc" />
    <path
       d="m 206.66458,277.23568 c 4.69764,-0.9802 9.47858,-0.58112 13.9849,1.164"
       stroke="#ffffff"
       stroke-width="1.81901"
       stroke-miterlimit="8"
       fill="none"
       fill-rule="evenodd"
       id="path91"
       inkscape:export-filename="/hits/fast/mbm/buhrjk/phd/kimmdy-examples/deps/kimmdy/www/favicon.png"
       inkscape:export-xdpi="96"
       inkscape:export-ydpi="96"
       sodipodi:nodetypes="cc" />
  </g>
</svg>
