<svg width="5108" height="1714" xmlns="http://www.w3.org/2000/svg" xmlns:xlink="http://www.w3.org/1999/xlink" xml:space="preserve" overflow="hidden"><g transform="translate(-24 -339)"><path d="M592.5 1288.84C592.5 1229 641.004 1180.5 700.836 1180.5L1134.16 1180.5C1194 1180.5 1242.5 1229 1242.5 1288.84L1242.5 1722.16C1242.5 1782 1194 1830.5 1134.16 1830.5L700.836 1830.5C641.004 1830.5 592.5 1782 592.5 1722.16Z" stroke="#000000" stroke-width="20.625" stroke-miterlimit="8" fill="#FFFFFF" fill-rule="evenodd"/><path d="M888.98 1528.48 751.324 1365.7C732.317 1343.22 725.078 1318.1 735.154 1309.58 745.23 1301.05 768.806 1312.37 787.812 1334.84L925.469 1497.62C944.475 1520.1 951.715 1545.23 941.639 1553.75 931.563 1562.27 907.987 1550.96 888.98 1528.48Z" fill-rule="evenodd"/><path d="M787.812 1334.84C806.819 1357.32 814.058 1382.45 803.982 1390.97 793.906 1399.49 770.33 1388.17 751.324 1365.7" stroke="#000000" stroke-width="6.875" stroke-miterlimit="8" fill="none" fill-rule="evenodd"/><path d="M888.98 1528.48 751.324 1365.7C732.317 1343.22 725.078 1318.1 735.154 1309.58 745.23 1301.05 768.806 1312.37 787.812 1334.84L925.469 1497.62C944.475 1520.1 951.715 1545.23 941.639 1553.75 931.563 1562.27 907.987 1550.96 888.98 1528.48Z" stroke="#000000" stroke-width="6.875" stroke-miterlimit="8" fill="none" fill-rule="evenodd"/><path d="M1068.92 1685.41 906.719 1547.07C884.323 1527.97 873.11 1504.35 881.673 1494.31 890.236 1484.27 915.333 1491.61 937.728 1510.71L1099.93 1649.05C1122.33 1668.15 1133.54 1691.78 1124.98 1701.82 1116.41 1711.86 1091.32 1704.51 1068.92 1685.41Z" fill-rule="evenodd"/><path d="M937.728 1510.71C960.124 1529.81 971.337 1553.44 962.774 1563.48 954.211 1573.52 929.114 1566.17 906.719 1547.07" stroke="#000000" stroke-width="6.875" stroke-miterlimit="8" fill="none" fill-rule="evenodd"/><path d="M1068.92 1685.41 906.719 1547.07C884.323 1527.97 873.11 1504.35 881.673 1494.31 890.236 1484.27 915.333 1491.61 937.728 1510.71L1099.93 1649.05C1122.33 1668.15 1133.54 1691.78 1124.98 1701.82 1116.41 1711.86 1091.32 1704.51 1068.92 1685.41Z" stroke="#000000" stroke-width="6.875" stroke-miterlimit="8" fill="none" fill-rule="evenodd"/><path d="M905.485 1562.01 773.677 1697.85C755.478 1716.61 731.095 1722.47 719.217 1710.94 707.339 1699.41 712.463 1674.87 730.662 1656.11L862.471 1520.27C880.67 1501.52 905.052 1495.66 916.93 1507.18 928.808 1518.71 923.684 1543.26 905.485 1562.01Z" fill-rule="evenodd"/><path d="M730.662 1656.11C748.861 1637.36 773.243 1631.49 785.121 1643.02 797 1654.55 791.876 1679.09 773.677 1697.85" stroke="#000000" stroke-width="6.875" stroke-miterlimit="8" fill="none" fill-rule="evenodd"/><path d="M905.485 1562.01 773.677 1697.85C755.478 1716.61 731.095 1722.47 719.217 1710.94 707.339 1699.41 712.463 1674.87 730.662 1656.11L862.471 1520.27C880.67 1501.52 905.052 1495.66 916.93 1507.18 928.808 1518.71 923.684 1543.26 905.485 1562.01Z" stroke="#000000" stroke-width="6.875" stroke-miterlimit="8" fill="none" fill-rule="evenodd"/><path d="M52.2378 916.839C19.8331 866.584 34.303 799.576 84.5571 767.172L448.519 532.483C498.773 500.079 565.781 514.549 598.186 564.803L832.874 928.764C865.279 979.018 850.809 1046.03 800.555 1078.43L436.593 1313.12C386.339 1345.52 319.331 1331.05 286.926 1280.8Z" stroke="#000000" stroke-width="20.625" stroke-miterlimit="8" fill="#FFFFFF" fill-rule="evenodd"/><path d="M1067.4 1361 952.972 1511.77C937.172 1532.59 913.677 1541.36 900.493 1531.35 887.309 1521.34 889.43 1496.36 905.229 1475.54L1019.66 1324.77C1035.46 1303.95 1058.95 1295.19 1072.14 1305.19 1085.32 1315.2 1083.2 1340.19 1067.4 1361Z" fill-rule="evenodd"/><path d="M905.229 1475.54C921.028 1454.72 944.524 1445.96 957.708 1455.96 970.892 1465.97 968.771 1490.96 952.972 1511.77" stroke="#000000" stroke-width="6.875" stroke-miterlimit="8" fill="none" fill-rule="evenodd"/><path d="M1067.4 1361 952.972 1511.77C937.172 1532.59 913.677 1541.36 900.493 1531.35 887.309 1521.34 889.43 1496.36 905.229 1475.54L1019.66 1324.77C1035.46 1303.95 1058.95 1295.19 1072.14 1305.19 1085.32 1315.2 1083.2 1340.19 1067.4 1361Z" stroke="#000000" stroke-width="6.875" stroke-miterlimit="8" fill="none" fill-rule="evenodd"/><path d="M836.5 1512.5C836.5 1471.63 868.959 1438.5 909 1438.5 949.041 1438.5 981.5 1471.63 981.5 1512.5 981.5 1553.37 949.041 1586.5 909 1586.5 868.959 1586.5 836.5 1553.37 836.5 1512.5Z" stroke="#000000" stroke-width="6.875" stroke-miterlimit="8" fill-rule="evenodd"/><path d="M702.5 1329.5C702.5 1298.57 728.468 1273.5 760.5 1273.5 792.533 1273.5 818.5 1298.57 818.5 1329.5 818.5 1360.43 792.533 1385.5 760.5 1385.5 728.468 1385.5 702.5 1360.43 702.5 1329.5Z" stroke="#000000" stroke-width="6.875" stroke-miterlimit="8" fill="#FFFFFF" fill-rule="evenodd"/><path d="M657.5 1682C657.5 1636.99 693.989 1600.5 739 1600.5 784.011 1600.5 820.5 1636.99 820.5 1682 820.5 1727.01 784.011 1763.5 739 1763.5 693.989 1763.5 657.5 1727.01 657.5 1682Z" stroke="#000000" stroke-width="6.875" stroke-miterlimit="8" fill="#FFFFFF" fill-rule="evenodd"/><path d="M982.5 1306C982.5 1260.99 1018.76 1224.5 1063.5 1224.5 1108.23 1224.5 1144.5 1260.99 1144.5 1306 1144.5 1351.01 1108.23 1387.5 1063.5 1387.5 1018.76 1387.5 982.5 1351.01 982.5 1306Z" stroke="#000000" stroke-width="6.875" stroke-miterlimit="8" fill="#FFFFFF" fill-rule="evenodd"/><path d="M1039.5 1669C1039.5 1637.8 1065.47 1612.5 1097.5 1612.5 1129.53 1612.5 1155.5 1637.8 1155.5 1669 1155.5 1700.2 1129.53 1725.5 1097.5 1725.5 1065.47 1725.5 1039.5 1700.2 1039.5 1669Z" stroke="#000000" stroke-width="6.875" stroke-miterlimit="8" fill="#FFFFFF" fill-rule="evenodd"/><path d="M421.384 879.296 473.348 672.542C480.522 643.995 496.713 623.461 509.511 626.678 522.309 629.894 526.867 655.643 519.693 684.19L467.729 890.944C460.554 919.491 444.363 940.025 431.566 936.808 418.768 933.592 414.209 907.843 421.384 879.296Z" fill-rule="evenodd"/><path d="M519.693 684.19C512.518 712.737 496.327 733.271 483.529 730.055 470.731 726.838 466.173 701.089 473.348 672.542" stroke="#000000" stroke-width="6.875" stroke-miterlimit="8" fill="none" fill-rule="evenodd"/><path d="M421.384 879.296 473.348 672.542C480.522 643.995 496.713 623.461 509.511 626.678 522.309 629.894 526.867 655.643 519.693 684.19L467.729 890.944C460.554 919.491 444.363 940.025 431.566 936.808 418.768 933.592 414.209 907.843 421.384 879.296Z" stroke="#000000" stroke-width="6.875" stroke-miterlimit="8" fill="none" fill-rule="evenodd"/><path d="M361.666 1132.55 408.5 924.577C414.967 895.862 430.645 874.934 443.518 877.833 456.392 880.732 461.586 906.36 455.119 935.076L408.285 1143.05C401.819 1171.77 386.141 1192.7 373.267 1189.8 360.394 1186.9 355.2 1161.27 361.666 1132.55Z" fill-rule="evenodd"/><path d="M455.119 935.076C448.653 963.791 432.975 984.719 420.101 981.82 407.228 978.922 402.034 953.293 408.5 924.577" stroke="#000000" stroke-width="6.875" stroke-miterlimit="8" fill="none" fill-rule="evenodd"/><path d="M361.666 1132.55 408.5 924.577C414.967 895.862 430.645 874.934 443.518 877.833 456.392 880.732 461.586 906.36 455.119 935.076L408.285 1143.05C401.819 1171.77 386.141 1192.7 373.267 1189.8 360.394 1186.9 355.2 1161.27 361.666 1132.55Z" stroke="#000000" stroke-width="6.875" stroke-miterlimit="8" fill="none" fill-rule="evenodd"/><path d="M367.404 901.917C367.4 861.079 399.902 827.971 440.001 827.966 480.1 827.962 512.61 861.064 512.614 901.901 512.619 942.738 480.116 975.847 440.017 975.851 399.918 975.856 367.408 942.754 367.404 901.917Z" stroke="#000000" stroke-width="6.875" stroke-miterlimit="8" fill-rule="evenodd"/><path d="M320.759 1157.22C320.755 1126.13 346.768 1100.93 378.859 1100.93 410.951 1100.92 436.969 1126.12 436.972 1157.21 436.976 1188.29 410.963 1213.5 378.872 1213.5 346.78 1213.5 320.762 1188.31 320.759 1157.22Z" stroke="#000000" stroke-width="6.875" stroke-miterlimit="8" fill="#FFFFFF" fill-rule="evenodd"/><path d="M440.573 659.7C440.569 628.614 466.582 603.41 498.674 603.407 530.765 603.403 556.783 628.601 556.787 659.688 556.79 690.775 530.777 715.978 498.686 715.982 466.594 715.985 440.576 690.787 440.573 659.7Z" stroke="#000000" stroke-width="6.875" stroke-miterlimit="8" fill="#FFFFFF" fill-rule="evenodd"/><path d="M471.859 623.57C489.408 618.966 507.532 619.547 524.883 625.268" stroke="#000000" stroke-width="6.875" stroke-miterlimit="8" fill="none" fill-rule="evenodd"/><path d="M396.883 1193.38C378.811 1194.94 361.052 1191.29 344.929 1182.71" stroke="#000000" stroke-width="6.875" stroke-miterlimit="8" fill="none" fill-rule="evenodd"/><path d="M761.961 1292.19C778.611 1299.39 792.517 1311.02 802.641 1326.22" stroke="#000000" stroke-width="6.875" stroke-miterlimit="8" fill="none" fill-rule="evenodd"/><path d="M1036.36 1250.07C1058.75 1244.2 1081.97 1246.79 1103.25 1257.53" stroke="#000000" stroke-width="13.75" stroke-miterlimit="8" fill="none" fill-rule="evenodd"/><path d="M709.359 1626.07C731.748 1620.2 754.971 1622.79 776.253 1633.53" stroke="#000000" stroke-width="13.75" stroke-miterlimit="8" fill="none" fill-rule="evenodd"/><path d="M1101.06 1631.38C1116.72 1640.53 1129.12 1653.76 1137.34 1670.07" stroke="#000000" stroke-width="6.875" stroke-miterlimit="8" fill="none" fill-rule="evenodd"/><path d="M0 0 0.000360892 1506.24" stroke="#000000" stroke-width="27.5" stroke-miterlimit="8" fill="none" fill-rule="evenodd" transform="matrix(1 0 0 -1 1330 1859.24)"/><text font-family="Miriam Libre,Miriam Libre_MSFontService,sans-serif" font-weight="400" font-size="733" transform="matrix(1 0 0 1 1410.37 1381)">KIMMDY</text></g></svg>