<?xml version="1.0" encoding="UTF-8" standalone="no"?>
<svg
   width="4199.7363"
   height="1335.8719"
   xml:space="preserve"
   overflow="hidden"
   version="1.1"
   id="svg99"
   sodipodi:docname="kimmdy_logo.svg"
   inkscape:version="1.1.2 (0a00cf5339, 2022-02-04)"
   xmlns:inkscape="http://www.inkscape.org/namespaces/inkscape"
   xmlns:sodipodi="http://sodipodi.sourceforge.net/DTD/sodipodi-0.dtd"
   xmlns="http://www.w3.org/2000/svg"
   xmlns:svg="http://www.w3.org/2000/svg"><defs
     id="defs103" /><sodipodi:namedview
     id="namedview101"
     pagecolor="#ffffff"
     bordercolor="#666666"
     borderopacity="1.0"
     inkscape:pageshadow="2"
     inkscape:pageopacity="0.0"
     inkscape:pagecheckerboard="0"
     showgrid="false"
     inkscape:snap-text-baseline="true"
     inkscape:zoom="0.25582094"
     inkscape:cx="2146.0323"
     inkscape:cy="1022.1994"
     inkscape:window-width="2544"
     inkscape:window-height="1360"
     inkscape:window-x="8"
     inkscape:window-y="35"
     inkscape:window-maximized="0"
     inkscape:current-layer="g97"
     inkscape:snap-bbox="true"
     inkscape:bbox-paths="true"
     inkscape:bbox-nodes="true" /><g
     transform="translate(-49.218896,-525.74877)"
     id="g97"><path
       d="m 1330,1859.2397 4e-4,-1333.49073"
       stroke="#000000"
       stroke-width="25.8754"
       stroke-miterlimit="8"
       fill="none"
       fill-rule="evenodd"
       id="path93" /><text
       font-family="'Miriam Libre', 'Miriam Libre_MSFontService', sans-serif"
       font-weight="400"
       font-size="733px"
       transform="translate(1410.37,1381)"
       id="text95"
       style="-inkscape-font-specification:'Miriam Libre, Normal';font-family:'Miriam Libre';font-weight:normal;font-style:normal;font-stretch:normal;font-variant:normal;font-size:713.333px;font-variant-ligatures:normal;font-variant-caps:normal;font-variant-numeric:normal;font-variant-east-asian:normal"><tspan
         style="font-style:normal;font-variant:normal;font-weight:normal;font-stretch:normal;font-size:713.33333333px;font-family:'Miriam Libre';-inkscape-font-specification:'Miriam Libre, Normal';font-variant-ligatures:normal;font-variant-caps:normal;font-variant-numeric:normal;font-variant-east-asian:normal"
         id="tspan17555">KIMMDY</tspan></text><path
       d="m 617.03251,1309.6506 c 0,-59.8397 48.50425,-108.3396 108.33654,-108.3396 h 433.32615 c 59.8404,0 108.3406,48.4999 108.3406,108.3396 v 433.3181 c 0,59.8397 -48.5002,108.3395 -108.3406,108.3395 H 725.36905 c -59.83229,0 -108.33654,-48.4998 -108.33654,-108.3395 z"
       stroke="#000000"
       stroke-width="20.625"
       stroke-miterlimit="8"
       fill="#ffffff"
       fill-rule="evenodd"
       id="path25"
       inkscape:export-filename="/hits/fast/mbm/buhrjk/phd/kimmdy-examples/deps/kimmdy/www/dice.png"
       inkscape:export-xdpi="96"
       inkscape:export-ydpi="96"
       sodipodi:nodetypes="sssssssss" /><path
       d="M 913.514,1549.2895 775.85734,1386.5103 c -19.00714,-22.48 -26.24614,-47.5999 -16.17011,-56.1199 10.07607,-8.5299 33.6522,2.7901 52.65827,25.2599 l 137.65769,162.7794 c 19.00611,22.4799 26.24613,47.6098 16.1701,56.1298 -10.07607,8.5199 -33.6522,-2.7901 -52.65929,-25.27 z"
       fill-rule="evenodd"
       id="path27"
       inkscape:export-filename="/hits/fast/mbm/buhrjk/phd/kimmdy-examples/deps/kimmdy/www/dice.png"
       inkscape:export-xdpi="96"
       inkscape:export-ydpi="96"
       sodipodi:nodetypes="cccccsc"
       style="stroke-width:0.999999" /><path
       d="m 812.3455,1355.6503 c 19.00709,22.48 26.24614,47.6099 16.17007,56.1298 -10.07604,8.52 -33.65216,-2.8 -52.65823,-25.2698"
       stroke="#000000"
       stroke-width="6.875"
       stroke-miterlimit="8"
       fill="none"
       fill-rule="evenodd"
       id="path29"
       inkscape:export-filename="/hits/fast/mbm/buhrjk/phd/kimmdy-examples/deps/kimmdy/www/dice.png"
       inkscape:export-xdpi="96"
       inkscape:export-ydpi="96"
       sodipodi:nodetypes="csc" /><path
       d="M 913.514,1549.2895 775.85734,1386.5103 c -19.00714,-22.48 -26.24614,-47.5999 -16.17011,-56.1199 10.07607,-8.5299 33.6522,2.7901 52.65827,25.2599 l 137.65769,162.7794 c 19.00611,22.4799 26.24613,47.6098 16.1701,56.1298 -10.07607,8.5199 -33.6522,-2.7901 -52.65929,-25.27 z"
       stroke="#000000"
       stroke-width="6.875"
       stroke-miterlimit="8"
       fill="none"
       fill-rule="evenodd"
       id="path31"
       inkscape:export-filename="/hits/fast/mbm/buhrjk/phd/kimmdy-examples/deps/kimmdy/www/dice.png"
       inkscape:export-xdpi="96"
       inkscape:export-ydpi="96"
       sodipodi:nodetypes="cccccsc" /><path
       d="M 1093.4549,1706.2189 931.2531,1567.8795 c -22.39612,-19.1 -33.60918,-42.7199 -25.04614,-52.7598 8.56305,-10.04 33.66017,-2.7001 56.05527,16.3999 l 162.20287,138.3394 c 22.4001,19.1 33.6101,42.7298 25.0501,52.7698 -8.57,10.0399 -33.6602,2.6899 -56.0603,-16.4099 z"
       fill-rule="evenodd"
       id="path33"
       inkscape:export-filename="/hits/fast/mbm/buhrjk/phd/kimmdy-examples/deps/kimmdy/www/dice.png"
       inkscape:export-xdpi="96"
       inkscape:export-ydpi="96"
       sodipodi:nodetypes="ccscccc"
       style="stroke-width:0.999999" /><path
       d="m 962.26223,1531.5196 c 22.39612,19.1 33.60918,42.7298 25.04614,52.7698 -8.56305,10.0399 -33.66013,2.6899 -56.05527,-16.4099"
       stroke="#000000"
       stroke-width="6.875"
       stroke-miterlimit="8"
       fill="none"
       fill-rule="evenodd"
       id="path35"
       inkscape:export-filename="/hits/fast/mbm/buhrjk/phd/kimmdy-examples/deps/kimmdy/www/dice.png"
       inkscape:export-xdpi="96"
       inkscape:export-ydpi="96"
       sodipodi:nodetypes="csc" /><path
       d="M 1093.4549,1706.2189 931.2531,1567.8795 c -22.39612,-19.1 -33.60918,-42.7199 -25.04614,-52.7598 8.56305,-10.04 33.66017,-2.7001 56.05527,16.3999 l 162.20287,138.3394 c 22.4001,19.1 33.6101,42.7298 25.0501,52.7698 -8.57,10.0399 -33.6602,2.6899 -56.0603,-16.4099 z"
       stroke="#000000"
       stroke-width="6.875"
       stroke-miterlimit="8"
       fill="none"
       fill-rule="evenodd"
       id="path37"
       inkscape:export-filename="/hits/fast/mbm/buhrjk/phd/kimmdy-examples/deps/kimmdy/www/dice.png"
       inkscape:export-xdpi="96"
       inkscape:export-ydpi="96"
       sodipodi:nodetypes="ccscccc" /><path
       d="m 930.01908,1582.8194 -131.80864,135.8393 c -18.1991,18.76 -42.58223,24.62 -54.46027,13.0901 -11.87807,-11.53 -6.75405,-36.0699 11.44506,-54.8298 l 131.80966,-135.8395 c 18.19906,-18.7498 42.58121,-24.6098 54.45925,-13.0899 11.87807,11.5299 6.75405,36.0798 -11.44506,54.8298 z"
       fill-rule="evenodd"
       id="path39"
       inkscape:export-filename="/hits/fast/mbm/buhrjk/phd/kimmdy-examples/deps/kimmdy/www/dice.png"
       inkscape:export-xdpi="96"
       inkscape:export-ydpi="96"
       sodipodi:nodetypes="ccscccc"
       style="stroke-width:0.999999" /><path
       d="m 755.19523,1676.919 c 18.19906,-18.7499 42.58121,-24.62 54.45925,-13.0899 11.87909,11.5299 6.75503,36.0698 -11.44404,54.8296"
       stroke="#000000"
       stroke-width="6.875"
       stroke-miterlimit="8"
       fill="none"
       fill-rule="evenodd"
       id="path41"
       inkscape:export-filename="/hits/fast/mbm/buhrjk/phd/kimmdy-examples/deps/kimmdy/www/dice.png"
       inkscape:export-xdpi="96"
       inkscape:export-ydpi="96"
       sodipodi:nodetypes="ccc" /><path
       d="m 930.01908,1582.8194 -131.80864,135.8393 c -18.1991,18.76 -42.58223,24.62 -54.46027,13.0901 -11.87807,-11.53 -6.75405,-36.0699 11.44506,-54.8298 l 131.80966,-135.8395 c 18.19906,-18.7498 42.58121,-24.6098 54.45925,-13.0899 11.87807,11.5299 6.75405,36.0798 -11.44506,54.8298 z"
       stroke="#000000"
       stroke-width="6.875"
       stroke-miterlimit="8"
       fill="none"
       fill-rule="evenodd"
       id="path43"
       inkscape:export-filename="/hits/fast/mbm/buhrjk/phd/kimmdy-examples/deps/kimmdy/www/dice.png"
       inkscape:export-xdpi="96"
       inkscape:export-ydpi="96"
       sodipodi:nodetypes="ccscccc" /><path
       d="M 76.767575,937.65113 C 44.362695,887.39634 58.832685,820.38863 109.08703,787.98477 L 473.05078,553.2968 c 50.25425,-32.40386 117.26259,-17.93393 149.66777,32.31984 l 234.68919,363.95943 c 32.40515,50.2538 17.93507,117.26553 -32.31918,149.66543 l -363.96385,234.689 c -50.25424,32.3998 -117.26259,17.9298 -149.66775,-32.3199 z"
       stroke="#000000"
       stroke-width="20.625"
       stroke-miterlimit="8"
       fill="#ffffff"
       fill-rule="evenodd"
       id="path45"
       inkscape:export-filename="/hits/fast/mbm/buhrjk/phd/kimmdy-examples/deps/kimmdy/www/dice.png"
       inkscape:export-xdpi="96"
       inkscape:export-ydpi="96"
       sodipodi:nodetypes="ccccccccc" /><path
       d="m 1091.9349,1381.8103 -114.42855,150.7693 c -15.80008,20.8199 -39.29522,29.5899 -52.47927,19.58 -13.18408,-10.0101 -11.06309,-34.99 4.73602,-55.8098 l 114.4316,-150.7694 c 15.8,-20.8199 39.2901,-29.5799 52.4803,-19.5799 13.18,10.0099 11.06,34.9999 -4.7401,55.8098 z"
       fill-rule="evenodd"
       id="path47"
       inkscape:export-filename="/hits/fast/mbm/buhrjk/phd/kimmdy-examples/deps/kimmdy/www/dice.png"
       inkscape:export-xdpi="96"
       inkscape:export-ydpi="96"
       sodipodi:nodetypes="ccscccc"
       style="stroke-width:0.999999" /><path
       d="m 929.7631,1496.3498 c 15.79906,-20.8199 39.29518,-29.5799 52.47927,-19.58 13.18404,10.01 11.06304,34.9999 -4.73602,55.8098"
       stroke="#000000"
       stroke-width="6.875"
       stroke-miterlimit="8"
       fill="none"
       fill-rule="evenodd"
       id="path49"
       inkscape:export-filename="/hits/fast/mbm/buhrjk/phd/kimmdy-examples/deps/kimmdy/www/dice.png"
       inkscape:export-xdpi="96"
       inkscape:export-ydpi="96"
       sodipodi:nodetypes="ccc" /><path
       d="m 1091.9349,1381.8103 -114.42855,150.7693 c -15.80008,20.8199 -39.29522,29.5899 -52.47927,19.58 -13.18408,-10.0101 -11.06309,-34.99 4.73602,-55.8098 l 114.4316,-150.7694 c 15.8,-20.8199 39.2901,-29.5799 52.4803,-19.5799 13.18,10.0099 11.06,34.9999 -4.7401,55.8098 z"
       stroke="#000000"
       stroke-width="6.875"
       stroke-miterlimit="8"
       fill="none"
       fill-rule="evenodd"
       id="path51"
       inkscape:export-filename="/hits/fast/mbm/buhrjk/phd/kimmdy-examples/deps/kimmdy/www/dice.png"
       inkscape:export-xdpi="96"
       inkscape:export-ydpi="96"
       sodipodi:nodetypes="ccscccc" /><path
       d="m 861.03375,1533.3096 c 0,-40.8698 32.45915,-73.9997 72.50037,-73.9997 40.04118,0 72.50038,33.1299 72.50038,73.9997 0,40.8698 -32.4592,73.9996 -72.50038,73.9996 -40.04122,0 -72.50037,-33.1298 -72.50037,-73.9996 z"
       stroke="#000000"
       stroke-width="6.875"
       stroke-miterlimit="8"
       fill-rule="evenodd"
       id="path53"
       inkscape:export-filename="/hits/fast/mbm/buhrjk/phd/kimmdy-examples/deps/kimmdy/www/dice.png"
       inkscape:export-xdpi="96"
       inkscape:export-ydpi="96"
       sodipodi:nodetypes="sssss" /><path
       d="m 727.03306,1350.3104 c 0,-30.9298 25.96815,-55.9998 58.00033,-55.9998 32.03312,0 58.00024,25.07 58.00024,55.9998 0,30.9298 -25.96712,55.9998 -58.00024,55.9998 -32.03218,0 -58.00033,-25.07 -58.00033,-55.9998 z"
       stroke="#000000"
       stroke-width="6.875"
       stroke-miterlimit="8"
       fill-rule="evenodd"
       id="path55"
       inkscape:export-filename="/hits/fast/mbm/buhrjk/phd/kimmdy-examples/deps/kimmdy/www/dice.png"
       inkscape:export-xdpi="96"
       inkscape:export-ydpi="96"
       sodipodi:nodetypes="sssss" /><path
       d="m 682.03285,1702.8088 c 0,-45.0097 36.48917,-81.4996 81.50043,-81.4996 45.01119,0 81.5004,36.4899 81.5004,81.4996 0,45.0099 -36.48921,81.4997 -81.5004,81.4997 -45.01126,0 -81.50043,-36.4898 -81.50043,-81.4997 z"
       stroke="#000000"
       stroke-width="6.875"
       stroke-miterlimit="8"
       fill-rule="evenodd"
       id="path57"
       inkscape:export-filename="/hits/fast/mbm/buhrjk/phd/kimmdy-examples/deps/kimmdy/www/dice.png"
       inkscape:export-xdpi="96"
       inkscape:export-ydpi="96"
       sodipodi:nodetypes="sssss" /><path
       d="m 1007.0345,1326.8105 c 0,-45.0098 36.2602,-81.4997 81.0004,-81.4997 44.7302,0 81.0004,36.4899 81.0004,81.4997 0,45.0098 -36.2702,81.4996 -81.0004,81.4996 -44.7402,0 -81.0004,-36.4898 -81.0004,-81.4996 z"
       stroke="#000000"
       stroke-width="6.875"
       stroke-miterlimit="8"
       fill-rule="evenodd"
       id="path59"
       inkscape:export-filename="/hits/fast/mbm/buhrjk/phd/kimmdy-examples/deps/kimmdy/www/dice.png"
       inkscape:export-xdpi="96"
       inkscape:export-ydpi="96"
       sodipodi:nodetypes="sssss" /><path
       d="m 1064.0347,1689.809 c 0,-31.2 25.9702,-56.4998 58.0004,-56.4998 32.0301,0 58.0002,25.2998 58.0002,56.4998 0,31.1998 -25.9701,56.4997 -58.0002,56.4997 -32.0302,0 -58.0004,-25.2999 -58.0004,-56.4997 z"
       stroke="#000000"
       stroke-width="6.875"
       stroke-miterlimit="8"
       fill-rule="evenodd"
       id="path61"
       inkscape:export-filename="/hits/fast/mbm/buhrjk/phd/kimmdy-examples/deps/kimmdy/www/dice.png"
       inkscape:export-xdpi="96"
       inkscape:export-ydpi="96"
       sodipodi:nodetypes="sssss" /><path
       d="m 445.91565,900.10829 51.96426,-206.75311 c 7.17403,-28.54688 23.36511,-49.08079 36.16317,-45.8638 12.79807,3.21599 17.35609,28.96488 10.18205,57.51175 l -51.96426,206.75312 c -7.17502,28.54687 -23.36612,49.08079 -36.16318,45.8638 -12.79806,-3.216 -17.35708,-28.96489 -10.18204,-57.51176 z"
       fill-rule="evenodd"
       id="path63"
       inkscape:export-filename="/hits/fast/mbm/buhrjk/phd/kimmdy-examples/deps/kimmdy/www/dice.png"
       inkscape:export-xdpi="96"
       inkscape:export-ydpi="96"
       sodipodi:nodetypes="ccccccc"
       style="stroke-width:0.999999" /><path
       d="m 544.22513,705.00313 c -7.17502,28.54687 -23.3661,49.08079 -36.16417,45.8648 -12.79807,-3.21697 -17.35609,-28.96586 -10.18105,-57.51275"
       stroke="#000000"
       stroke-width="6.875"
       stroke-miterlimit="8"
       fill="none"
       fill-rule="evenodd"
       id="path65"
       inkscape:export-filename="/hits/fast/mbm/buhrjk/phd/kimmdy-examples/deps/kimmdy/www/dice.png"
       inkscape:export-xdpi="96"
       inkscape:export-ydpi="96"
       sodipodi:nodetypes="ccc" /><path
       d="m 445.91565,900.10829 51.96426,-206.75311 c 7.17403,-28.54688 23.36511,-49.08079 36.16317,-45.8638 12.79807,3.21599 17.35609,28.96488 10.18205,57.51175 l -51.96426,206.75312 c -7.17502,28.54687 -23.36612,49.08079 -36.16318,45.8638 -12.79806,-3.216 -17.35708,-28.96489 -10.18204,-57.51176 z"
       stroke="#000000"
       stroke-width="6.875"
       stroke-miterlimit="8"
       fill="none"
       fill-rule="evenodd"
       id="path67"
       inkscape:export-filename="/hits/fast/mbm/buhrjk/phd/kimmdy-examples/deps/kimmdy/www/dice.png"
       inkscape:export-xdpi="96"
       inkscape:export-ydpi="96"
       sodipodi:nodetypes="ccccccc" /><path
       d="m 386.19734,1153.3612 46.83424,-207.97211 c 6.46704,-28.71487 22.14512,-49.64278 35.01817,-46.7438 12.87407,2.899 18.0681,28.52688 11.60106,57.24275 l -46.83423,207.97306 c -6.46603,28.7199 -22.14411,49.6499 -35.01818,46.7499 -12.87307,-2.9 -18.06709,-28.5299 -11.60106,-57.2498 z"
       fill-rule="evenodd"
       id="path69"
       inkscape:export-filename="/hits/fast/mbm/buhrjk/phd/kimmdy-examples/deps/kimmdy/www/dice.png"
       inkscape:export-xdpi="96"
       inkscape:export-ydpi="96"
       sodipodi:nodetypes="ccccccc"
       style="stroke-width:0.999999" /><path
       d="m 479.65081,955.88804 c -6.46603,28.71491 -22.14411,49.64276 -35.01817,46.74386 -12.87306,-2.89803 -18.06709,-28.52693 -11.60106,-57.24281"
       stroke="#000000"
       stroke-width="6.875"
       stroke-miterlimit="8"
       fill="none"
       fill-rule="evenodd"
       id="path71"
       inkscape:export-filename="/hits/fast/mbm/buhrjk/phd/kimmdy-examples/deps/kimmdy/www/dice.png"
       inkscape:export-xdpi="96"
       inkscape:export-ydpi="96"
       sodipodi:nodetypes="ccc" /><path
       d="m 386.19734,1153.3612 46.83424,-207.97211 c 6.46704,-28.71487 22.14512,-49.64278 35.01817,-46.7438 12.87407,2.899 18.0681,28.52688 11.60106,57.24275 l -46.83423,207.97306 c -6.46603,28.7199 -22.14411,49.6499 -35.01818,46.7499 -12.87307,-2.9 -18.06709,-28.5299 -11.60106,-57.2498 z"
       stroke="#000000"
       stroke-width="6.875"
       stroke-miterlimit="8"
       fill="none"
       fill-rule="evenodd"
       id="path73"
       inkscape:export-filename="/hits/fast/mbm/buhrjk/phd/kimmdy-examples/deps/kimmdy/www/dice.png"
       inkscape:export-xdpi="96"
       inkscape:export-ydpi="96"
       sodipodi:nodetypes="ccccccc" /><path
       d="m 391.93537,922.72919 c -0.004,-40.83782 32.49817,-73.94568 72.59737,-73.95068 40.09919,-0.004 72.60936,33.09786 72.61337,73.93468 0.005,40.83682 -32.49818,73.9457 -72.59737,73.9497 -40.0992,0.004 -72.60937,-33.09688 -72.61337,-73.9337 z"
       stroke="#000000"
       stroke-width="6.875"
       stroke-miterlimit="8"
       fill-rule="evenodd"
       id="path75"
       inkscape:export-filename="/hits/fast/mbm/buhrjk/phd/kimmdy-examples/deps/kimmdy/www/dice.png"
       inkscape:export-xdpi="96"
       inkscape:export-ydpi="96"
       sodipodi:nodetypes="scccs" /><path
       d="m 345.29012,1178.0311 c -0.004,-31.0898 26.00914,-56.2897 58.10031,-56.2897 32.09217,-0.011 58.11029,25.1899 58.1133,56.2797 0.004,31.0799 -26.00913,56.2898 -58.10031,56.2898 -32.09216,0 -58.11029,-25.1899 -58.1133,-56.2798 z"
       stroke="#000000"
       stroke-width="6.875"
       stroke-miterlimit="8"
       fill-rule="evenodd"
       id="path77"
       inkscape:export-filename="/hits/fast/mbm/buhrjk/phd/kimmdy-examples/deps/kimmdy/www/dice.png"
       inkscape:export-xdpi="96"
       inkscape:export-ydpi="96"
       sodipodi:nodetypes="cccsc" /><path
       d="m 465.10473,680.51325 c -0.004,-31.08587 26.00913,-56.28977 58.1013,-56.29278 32.09116,-0.004 58.1093,25.1939 58.1133,56.28076 0.003,31.08688 -26.01014,56.28976 -58.1013,56.29377 -32.09217,0.003 -58.11029,-25.19489 -58.1133,-56.28175 z"
       stroke="#000000"
       stroke-width="6.875"
       stroke-miterlimit="8"
       fill-rule="evenodd"
       id="path79"
       inkscape:export-filename="/hits/fast/mbm/buhrjk/phd/kimmdy-examples/deps/kimmdy/www/dice.png"
       inkscape:export-xdpi="96"
       inkscape:export-ydpi="96"
       sodipodi:nodetypes="ccccc" /><path
       d="m 521.98657,642.06856 c 17.87999,3.07785 34.13587,11.11322 47.5593,23.50681"
       stroke="#ffffff"
       stroke-width="6.875"
       stroke-miterlimit="8"
       fill="none"
       fill-rule="evenodd"
       id="path81"
       inkscape:export-filename="/hits/fast/mbm/buhrjk/phd/kimmdy-examples/deps/kimmdy/www/dice.png"
       inkscape:export-xdpi="96"
       inkscape:export-ydpi="96"
       sodipodi:nodetypes="cc" /><path
       d="m 401.31381,1140.1058 c 17.48368,4.8327 32.85923,14.44 44.984,28.0986"
       stroke="#ffffff"
       stroke-width="6.875"
       stroke-miterlimit="8"
       fill="none"
       fill-rule="evenodd"
       id="path83"
       inkscape:export-filename="/hits/fast/mbm/buhrjk/phd/kimmdy-examples/deps/kimmdy/www/dice.png"
       inkscape:export-xdpi="96"
       inkscape:export-ydpi="96"
       sodipodi:nodetypes="cc" /><path
       d="m 770.91458,1309.2357 c 18.12783,-0.6697 35.68615,3.8403 51.36783,13.2007"
       stroke="#ffffff"
       stroke-width="6.875"
       stroke-miterlimit="8"
       fill="none"
       fill-rule="evenodd"
       id="path85"
       inkscape:export-filename="/hits/fast/mbm/buhrjk/phd/kimmdy-examples/deps/kimmdy/www/dice.png"
       inkscape:export-xdpi="96"
       inkscape:export-ydpi="96"
       sodipodi:nodetypes="cc" /><path
       d="m 1060.8947,1270.8807 c 22.3901,-5.87 45.6103,-3.2799 66.8904,7.4599"
       stroke="#ffffff"
       stroke-width="13.75"
       stroke-miterlimit="8"
       fill="none"
       fill-rule="evenodd"
       id="path87"
       inkscape:export-filename="/hits/fast/mbm/buhrjk/phd/kimmdy-examples/deps/kimmdy/www/dice.png"
       inkscape:export-xdpi="96"
       inkscape:export-ydpi="96"
       sodipodi:nodetypes="cc" /><path
       d="m 733.89211,1646.8791 c 22.38912,-5.87 45.61224,-3.2799 66.89435,7.4599"
       stroke="#ffffff"
       stroke-width="13.75"
       stroke-miterlimit="8"
       fill="none"
       fill-rule="evenodd"
       id="path89"
       inkscape:export-filename="/hits/fast/mbm/buhrjk/phd/kimmdy-examples/deps/kimmdy/www/dice.png"
       inkscape:export-xdpi="96"
       inkscape:export-ydpi="96"
       sodipodi:nodetypes="cc" /><path
       d="m 1099.424,1653.6284 c 17.7548,-3.7047 35.8245,-2.1963 52.8563,4.3994"
       stroke="#ffffff"
       stroke-width="6.875"
       stroke-miterlimit="8"
       fill="none"
       fill-rule="evenodd"
       id="path91"
       inkscape:export-filename="/hits/fast/mbm/buhrjk/phd/kimmdy-examples/deps/kimmdy/www/dice.png"
       inkscape:export-xdpi="96"
       inkscape:export-ydpi="96"
       sodipodi:nodetypes="cc" /></g></svg>
