<?xml version="1.0" encoding="UTF-8" standalone="no"?><svg xmlns="http://www.w3.org/2000/svg" xmlns:xlink="http://www.w3.org/1999/xlink" contentScriptType="application/ecmascript" contentStyleType="text/css" height="644px" preserveAspectRatio="none" style="width:873px;height:644px;" version="1.1" viewBox="0 0 873 644" width="873px" zoomAndPan="magnify"><defs><filter height="300%" id="fzgl4ex5y2u0d" width="300%" x="-1" y="-1"><feGaussianBlur result="blurOut" stdDeviation="2.0"/><feColorMatrix in="blurOut" result="blurOut2" type="matrix" values="0 0 0 0 0 0 0 0 0 0 0 0 0 0 0 0 0 0 .4 0"/><feOffset dx="4.0" dy="4.0" in="blurOut2" result="blurOut3"/><feBlend in="SourceGraphic" in2="blurOut3" mode="normal"/></filter></defs><g><!--cluster GROMACS--><polygon fill="#FFFFFF" filter="url(#fzgl4ex5y2u0d)" points="713.5,213,798.5,213,805.5,235.2969,851.5,235.2969,851.5,312,713.5,312,713.5,213" style="stroke: #000000; stroke-width: 1.5;"/><line style="stroke: #000000; stroke-width: 1.5;" x1="713.5" x2="805.5" y1="235.2969" y2="235.2969"/><text fill="#000000" font-family="sans-serif" font-size="14" font-weight="bold" lengthAdjust="spacingAndGlyphs" textLength="79" x="717.5" y="227.9951">GROMACS</text><!--class GROMACSCli--><rect fill="#FEFECE" filter="url(#fzgl4ex5y2u0d)" height="48" id="GROMACSCli" style="stroke: #A80036; stroke-width: 1.5;" width="105" x="730" y="248"/><ellipse cx="745" cy="264" fill="#B4A7E5" rx="11" ry="11" style="stroke: #A80036; stroke-width: 1.0;"/><path d="M740.9219,259.7656 L740.9219,257.6094 L748.3125,257.6094 L748.3125,259.7656 L745.8438,259.7656 L745.8438,267.8438 L748.3125,267.8438 L748.3125,270 L740.9219,270 L740.9219,267.8438 L743.3906,267.8438 L743.3906,259.7656 L740.9219,259.7656 Z "/><text fill="#000000" font-family="sans-serif" font-size="12" font-style="italic" lengthAdjust="spacingAndGlyphs" textLength="73" x="759" y="268.1543">GROMACSCli</text><line style="stroke: #A80036; stroke-width: 1.5;" x1="731" x2="834" y1="280" y2="280"/><line style="stroke: #A80036; stroke-width: 1.5;" x1="731" x2="834" y1="288" y2="288"/><!--class RunManager--><rect fill="#FEFECE" filter="url(#fzgl4ex5y2u0d)" height="201.6563" id="RunManager" style="stroke: #A80036; stroke-width: 1.5;" width="181" x="251" y="171"/><ellipse cx="297.75" cy="187" fill="#ADD1B2" rx="11" ry="11" style="stroke: #A80036; stroke-width: 1.0;"/><path d="M300.7188,192.6406 Q300.1406,192.9375 299.5,193.0781 Q298.8594,193.2344 298.1563,193.2344 Q295.6563,193.2344 294.3281,191.5938 Q293.0156,189.9375 293.0156,186.8125 Q293.0156,183.6875 294.3281,182.0313 Q295.6563,180.375 298.1563,180.375 Q298.8594,180.375 299.5,180.5313 Q300.1563,180.6875 300.7188,180.9844 L300.7188,183.7031 Q300.0938,183.125 299.5,182.8594 Q298.9063,182.5781 298.2813,182.5781 Q296.9375,182.5781 296.25,183.6563 Q295.5625,184.7188 295.5625,186.8125 Q295.5625,188.9063 296.25,189.9844 Q296.9375,191.0469 298.2813,191.0469 Q298.9063,191.0469 299.5,190.7813 Q300.0938,190.5 300.7188,189.9219 L300.7188,192.6406 Z "/><text fill="#000000" font-family="sans-serif" font-size="12" lengthAdjust="spacingAndGlyphs" textLength="79" x="318.25" y="191.1543">RunManager</text><line style="stroke: #A80036; stroke-width: 1.5;" x1="252" x2="431" y1="203" y2="203"/><text fill="#000000" font-family="sans-serif" font-size="11" lengthAdjust="spacingAndGlyphs" textLength="82" x="257" y="217.2104">config : Config</text><text fill="#000000" font-family="sans-serif" font-size="11" lengthAdjust="spacingAndGlyphs" textLength="93" x="257" y="230.0151">config_reactions</text><text fill="#000000" font-family="sans-serif" font-size="11" lengthAdjust="spacingAndGlyphs" textLength="73" x="257" y="242.8198">state : Enum</text><text fill="#000000" font-family="sans-serif" font-size="11" lengthAdjust="spacingAndGlyphs" textLength="61" x="257" y="255.6245">MDparams</text><text fill="#000000" font-family="sans-serif" font-size="11" lengthAdjust="spacingAndGlyphs" textLength="30" x="257" y="268.4292">rates</text><line style="stroke: #A80036; stroke-width: 1.5;" x1="252" x2="431" y1="275.0234" y2="275.0234"/><text fill="#000000" font-family="sans-serif" font-size="11" lengthAdjust="spacingAndGlyphs" textLength="78" x="257" y="289.2339">run_md_min()</text><text fill="#000000" font-family="sans-serif" font-size="11" lengthAdjust="spacingAndGlyphs" textLength="71" x="257" y="302.0386">run_md_eq()</text><text fill="#000000" font-family="sans-serif" font-size="11" lengthAdjust="spacingAndGlyphs" textLength="51" x="257" y="314.8433">run_md()</text><text fill="#000000" font-family="sans-serif" font-size="11" lengthAdjust="spacingAndGlyphs" textLength="99" x="257" y="327.6479">query_reactions()</text><text fill="#000000" font-family="sans-serif" font-size="11" lengthAdjust="spacingAndGlyphs" textLength="92" x="257" y="340.4526">make_decision()</text><text fill="#000000" font-family="sans-serif" font-size="11" lengthAdjust="spacingAndGlyphs" textLength="169" x="257" y="353.2573">run_recipe(ConversionRecipe)</text><text fill="#000000" font-family="sans-serif" font-size="11" lengthAdjust="spacingAndGlyphs" textLength="32" x="257" y="366.062">next()</text><!--class Config--><rect fill="#FEFECE" filter="url(#fzgl4ex5y2u0d)" height="86.4141" id="Config" style="stroke: #A80036; stroke-width: 1.5;" width="79" x="302" y="8"/><ellipse cx="320.6" cy="24" fill="#ADD1B2" rx="11" ry="11" style="stroke: #A80036; stroke-width: 1.0;"/><path d="M323.5688,29.6406 Q322.9906,29.9375 322.35,30.0781 Q321.7094,30.2344 321.0063,30.2344 Q318.5063,30.2344 317.1781,28.5938 Q315.8656,26.9375 315.8656,23.8125 Q315.8656,20.6875 317.1781,19.0313 Q318.5063,17.375 321.0063,17.375 Q321.7094,17.375 322.35,17.5313 Q323.0063,17.6875 323.5688,17.9844 L323.5688,20.7031 Q322.9438,20.125 322.35,19.8594 Q321.7563,19.5781 321.1313,19.5781 Q319.7875,19.5781 319.1,20.6563 Q318.4125,21.7188 318.4125,23.8125 Q318.4125,25.9063 319.1,26.9844 Q319.7875,28.0469 321.1313,28.0469 Q321.7563,28.0469 322.35,27.7813 Q322.9438,27.5 323.5688,26.9219 L323.5688,29.6406 Z "/><text fill="#000000" font-family="sans-serif" font-size="12" lengthAdjust="spacingAndGlyphs" textLength="39" x="335.4" y="28.1543">Config</text><line style="stroke: #A80036; stroke-width: 1.5;" x1="303" x2="380" y1="40" y2="40"/><text fill="#000000" font-family="sans-serif" font-size="11" lengthAdjust="spacingAndGlyphs" textLength="25" x="308" y="54.2104">path</text><text fill="#000000" font-family="sans-serif" font-size="11" lengthAdjust="spacingAndGlyphs" textLength="12" x="308" y="67.0151">...</text><line style="stroke: #A80036; stroke-width: 1.5;" x1="303" x2="380" y1="73.6094" y2="73.6094"/><text fill="#000000" font-family="sans-serif" font-size="11" lengthAdjust="spacingAndGlyphs" textLength="67" x="308" y="87.8198">read_yaml()</text><!--class MDManager--><rect fill="#FEFECE" filter="url(#fzgl4ex5y2u0d)" height="73.6094" id="MDManager" style="stroke: #A80036; stroke-width: 1.5;" width="106" x="518.5" y="235"/><ellipse cx="533.5" cy="251" fill="#ADD1B2" rx="11" ry="11" style="stroke: #A80036; stroke-width: 1.0;"/><path d="M536.4688,256.6406 Q535.8906,256.9375 535.25,257.0781 Q534.6094,257.2344 533.9063,257.2344 Q531.4063,257.2344 530.0781,255.5938 Q528.7656,253.9375 528.7656,250.8125 Q528.7656,247.6875 530.0781,246.0313 Q531.4063,244.375 533.9063,244.375 Q534.6094,244.375 535.25,244.5313 Q535.9063,244.6875 536.4688,244.9844 L536.4688,247.7031 Q535.8438,247.125 535.25,246.8594 Q534.6563,246.5781 534.0313,246.5781 Q532.6875,246.5781 532,247.6563 Q531.3125,248.7188 531.3125,250.8125 Q531.3125,252.9063 532,253.9844 Q532.6875,255.0469 534.0313,255.0469 Q534.6563,255.0469 535.25,254.7813 Q535.8438,254.5 536.4688,253.9219 L536.4688,256.6406 Z "/><text fill="#000000" font-family="sans-serif" font-size="12" lengthAdjust="spacingAndGlyphs" textLength="74" x="547.5" y="255.1543">MDManager</text><line style="stroke: #A80036; stroke-width: 1.5;" x1="519.5" x2="623.5" y1="267" y2="267"/><line style="stroke: #A80036; stroke-width: 1.5;" x1="519.5" x2="623.5" y1="275" y2="275"/><text fill="#000000" font-family="sans-serif" font-size="11" lengthAdjust="spacingAndGlyphs" textLength="67" x="524.5" y="289.2104">write_mdp()</text><text fill="#000000" font-family="sans-serif" font-size="11" lengthAdjust="spacingAndGlyphs" textLength="46" x="524.5" y="302.0151">do_md()</text><!--class ConversionRecipe--><rect fill="#FEFECE" filter="url(#fzgl4ex5y2u0d)" height="73.6094" id="ConversionRecipe" style="stroke: #A80036; stroke-width: 1.5;" width="143" x="6" y="450"/><ellipse cx="21" cy="466" fill="#ADD1B2" rx="11" ry="11" style="stroke: #A80036; stroke-width: 1.0;"/><path d="M23.9688,471.6406 Q23.3906,471.9375 22.75,472.0781 Q22.1094,472.2344 21.4063,472.2344 Q18.9063,472.2344 17.5781,470.5938 Q16.2656,468.9375 16.2656,465.8125 Q16.2656,462.6875 17.5781,461.0313 Q18.9063,459.375 21.4063,459.375 Q22.1094,459.375 22.75,459.5313 Q23.4063,459.6875 23.9688,459.9844 L23.9688,462.7031 Q23.3438,462.125 22.75,461.8594 Q22.1563,461.5781 21.5313,461.5781 Q20.1875,461.5781 19.5,462.6563 Q18.8125,463.7188 18.8125,465.8125 Q18.8125,467.9063 19.5,468.9844 Q20.1875,470.0469 21.5313,470.0469 Q22.1563,470.0469 22.75,469.7813 Q23.3438,469.5 23.9688,468.9219 L23.9688,471.6406 Z "/><text fill="#000000" font-family="sans-serif" font-size="12" lengthAdjust="spacingAndGlyphs" textLength="111" x="35" y="470.1543">ConversionRecipe</text><line style="stroke: #A80036; stroke-width: 1.5;" x1="7" x2="148" y1="482" y2="482"/><text fill="#000000" font-family="sans-serif" font-size="11" lengthAdjust="spacingAndGlyphs" textLength="24" x="12" y="496.2104">type</text><text fill="#000000" font-family="sans-serif" font-size="11" lengthAdjust="spacingAndGlyphs" textLength="51" x="12" y="509.0151">atom_idx</text><line style="stroke: #A80036; stroke-width: 1.5;" x1="7" x2="148" y1="515.6094" y2="515.6094"/><!--class DecisionStrategy--><rect fill="#FEFECE" filter="url(#fzgl4ex5y2u0d)" height="48" id="DecisionStrategy" style="stroke: #A80036; stroke-width: 1.5;" width="138" x="478.5" y="463"/><ellipse cx="493.5" cy="479" fill="#ADD1B2" rx="11" ry="11" style="stroke: #A80036; stroke-width: 1.0;"/><path d="M496.4688,484.6406 Q495.8906,484.9375 495.25,485.0781 Q494.6094,485.2344 493.9063,485.2344 Q491.4063,485.2344 490.0781,483.5938 Q488.7656,481.9375 488.7656,478.8125 Q488.7656,475.6875 490.0781,474.0313 Q491.4063,472.375 493.9063,472.375 Q494.6094,472.375 495.25,472.5313 Q495.9063,472.6875 496.4688,472.9844 L496.4688,475.7031 Q495.8438,475.125 495.25,474.8594 Q494.6563,474.5781 494.0313,474.5781 Q492.6875,474.5781 492,475.6563 Q491.3125,476.7188 491.3125,478.8125 Q491.3125,480.9063 492,481.9844 Q492.6875,483.0469 494.0313,483.0469 Q494.6563,483.0469 495.25,482.7813 Q495.8438,482.5 496.4688,481.9219 L496.4688,484.6406 Z "/><text fill="#000000" font-family="sans-serif" font-size="12" lengthAdjust="spacingAndGlyphs" textLength="106" x="507.5" y="483.1543">DecisionStrategy</text><line style="stroke: #A80036; stroke-width: 1.5;" x1="479.5" x2="615.5" y1="495" y2="495"/><line style="stroke: #A80036; stroke-width: 1.5;" x1="479.5" x2="615.5" y1="503" y2="503"/><!--class Reaction--><rect fill="#FEFECE" filter="url(#fzgl4ex5y2u0d)" height="73.6094" id="Reaction" style="stroke: #A80036; stroke-width: 1.5;" width="156" x="263.5" y="450"/><ellipse cx="309.75" cy="466" fill="#ADD1B2" rx="11" ry="11" style="stroke: #A80036; stroke-width: 1.0;"/><path d="M312.7188,471.6406 Q312.1406,471.9375 311.5,472.0781 Q310.8594,472.2344 310.1563,472.2344 Q307.6563,472.2344 306.3281,470.5938 Q305.0156,468.9375 305.0156,465.8125 Q305.0156,462.6875 306.3281,461.0313 Q307.6563,459.375 310.1563,459.375 Q310.8594,459.375 311.5,459.5313 Q312.1563,459.6875 312.7188,459.9844 L312.7188,462.7031 Q312.0938,462.125 311.5,461.8594 Q310.9063,461.5781 310.2813,461.5781 Q308.9375,461.5781 308.25,462.6563 Q307.5625,463.7188 307.5625,465.8125 Q307.5625,467.9063 308.25,468.9844 Q308.9375,470.0469 310.2813,470.0469 Q310.9063,470.0469 311.5,469.7813 Q312.0938,469.5 312.7188,468.9219 L312.7188,471.6406 Z "/><text fill="#000000" font-family="sans-serif" font-size="12" lengthAdjust="spacingAndGlyphs" textLength="55" x="330.25" y="470.1543">Reaction</text><line style="stroke: #A80036; stroke-width: 1.5;" x1="264.5" x2="418.5" y1="482" y2="482"/><text fill="#000000" font-family="sans-serif" font-size="11" lengthAdjust="spacingAndGlyphs" textLength="144" x="269.5" y="496.2104">recipe: ConversionRecipe</text><line style="stroke: #A80036; stroke-width: 1.5;" x1="264.5" x2="418.5" y1="502.8047" y2="502.8047"/><text fill="#000000" font-family="sans-serif" font-size="11" lengthAdjust="spacingAndGlyphs" textLength="62" x="269.5" y="517.0151">get_rates()</text><!--class HAT--><rect fill="#FEFECE" filter="url(#fzgl4ex5y2u0d)" height="48" id="HAT" style="stroke: #A80036; stroke-width: 1.5;" width="56" x="313.5" y="585"/><ellipse cx="328.5" cy="601" fill="#ADD1B2" rx="11" ry="11" style="stroke: #A80036; stroke-width: 1.0;"/><path d="M331.4688,606.6406 Q330.8906,606.9375 330.25,607.0781 Q329.6094,607.2344 328.9063,607.2344 Q326.4063,607.2344 325.0781,605.5938 Q323.7656,603.9375 323.7656,600.8125 Q323.7656,597.6875 325.0781,596.0313 Q326.4063,594.375 328.9063,594.375 Q329.6094,594.375 330.25,594.5313 Q330.9063,594.6875 331.4688,594.9844 L331.4688,597.7031 Q330.8438,597.125 330.25,596.8594 Q329.6563,596.5781 329.0313,596.5781 Q327.6875,596.5781 327,597.6563 Q326.3125,598.7188 326.3125,600.8125 Q326.3125,602.9063 327,603.9844 Q327.6875,605.0469 329.0313,605.0469 Q329.6563,605.0469 330.25,604.7813 Q330.8438,604.5 331.4688,603.9219 L331.4688,606.6406 Z "/><text fill="#000000" font-family="sans-serif" font-size="12" lengthAdjust="spacingAndGlyphs" textLength="24" x="342.5" y="605.1543">HAT</text><line style="stroke: #A80036; stroke-width: 1.5;" x1="314.5" x2="368.5" y1="617" y2="617"/><line style="stroke: #A80036; stroke-width: 1.5;" x1="314.5" x2="368.5" y1="625" y2="625"/><!--class CoordinateChanger--><rect fill="#FEFECE" filter="url(#fzgl4ex5y2u0d)" height="48" id="CoordinateChanger" style="stroke: #A80036; stroke-width: 1.5;" width="154" x="10.5" y="248"/><ellipse cx="25.5" cy="264" fill="#ADD1B2" rx="11" ry="11" style="stroke: #A80036; stroke-width: 1.0;"/><path d="M28.4688,269.6406 Q27.8906,269.9375 27.25,270.0781 Q26.6094,270.2344 25.9063,270.2344 Q23.4063,270.2344 22.0781,268.5938 Q20.7656,266.9375 20.7656,263.8125 Q20.7656,260.6875 22.0781,259.0313 Q23.4063,257.375 25.9063,257.375 Q26.6094,257.375 27.25,257.5313 Q27.9063,257.6875 28.4688,257.9844 L28.4688,260.7031 Q27.8438,260.125 27.25,259.8594 Q26.6563,259.5781 26.0313,259.5781 Q24.6875,259.5781 24,260.6563 Q23.3125,261.7188 23.3125,263.8125 Q23.3125,265.9063 24,266.9844 Q24.6875,268.0469 26.0313,268.0469 Q26.6563,268.0469 27.25,267.7813 Q27.8438,267.5 28.4688,266.9219 L28.4688,269.6406 Z "/><text fill="#000000" font-family="sans-serif" font-size="12" lengthAdjust="spacingAndGlyphs" textLength="122" x="39.5" y="268.1543">CoordinateChanger</text><line style="stroke: #A80036; stroke-width: 1.5;" x1="11.5" x2="163.5" y1="280" y2="280"/><line style="stroke: #A80036; stroke-width: 1.5;" x1="11.5" x2="163.5" y1="288" y2="288"/><!--class TopologyChanger--><rect fill="#FEFECE" filter="url(#fzgl4ex5y2u0d)" height="48" id="TopologyChanger" style="stroke: #A80036; stroke-width: 1.5;" width="141" x="124" y="27"/><ellipse cx="139" cy="43" fill="#ADD1B2" rx="11" ry="11" style="stroke: #A80036; stroke-width: 1.0;"/><path d="M141.9688,48.6406 Q141.3906,48.9375 140.75,49.0781 Q140.1094,49.2344 139.4063,49.2344 Q136.9063,49.2344 135.5781,47.5938 Q134.2656,45.9375 134.2656,42.8125 Q134.2656,39.6875 135.5781,38.0313 Q136.9063,36.375 139.4063,36.375 Q140.1094,36.375 140.75,36.5313 Q141.4063,36.6875 141.9688,36.9844 L141.9688,39.7031 Q141.3438,39.125 140.75,38.8594 Q140.1563,38.5781 139.5313,38.5781 Q138.1875,38.5781 137.5,39.6563 Q136.8125,40.7188 136.8125,42.8125 Q136.8125,44.9063 137.5,45.9844 Q138.1875,47.0469 139.5313,47.0469 Q140.1563,47.0469 140.75,46.7813 Q141.3438,46.5 141.9688,45.9219 L141.9688,48.6406 Z "/><text fill="#000000" font-family="sans-serif" font-size="12" lengthAdjust="spacingAndGlyphs" textLength="109" x="153" y="47.1543">TopologyChanger</text><line style="stroke: #A80036; stroke-width: 1.5;" x1="125" x2="264" y1="59" y2="59"/><line style="stroke: #A80036; stroke-width: 1.5;" x1="125" x2="264" y1="67" y2="67"/><!--link Reaction to HAT--><path d="M341.5,524 C341.5,536.81 341.5,551.36 341.5,564.7 " fill="none" id="Reaction-HAT" style="stroke: #A80036; stroke-width: 1.0;"/><polygon fill="none" points="348.5,564.89,341.5,584.89,334.5,564.89,348.5,564.89" style="stroke: #A80036; stroke-width: 1.0;"/><!--link Config to RunManager--><path d="M341.5,94.23 C341.5,116.1 341.5,143.83 341.5,170.79 " fill="none" id="Config-RunManager" style="stroke: #A80036; stroke-width: 1.0;"/><polygon fill="#000000" points="356,135,359,129,362,135,356,135" style="stroke: #000000; stroke-width: 1.0;"/><text fill="#000000" font-family="sans-serif" font-size="13" lengthAdjust="spacingAndGlyphs" textLength="36" x="342.5" y="150.0669">reads</text><!--link RunManager to MDManager--><path d="M432.07,272 C461.24,272 492.6,272 518.18,272 " fill="none" id="RunManager-MDManager" style="stroke: #A80036; stroke-width: 1.0;"/><text fill="#000000" font-family="sans-serif" font-size="13" lengthAdjust="spacingAndGlyphs" textLength="37" x="450.25" y="265.0669">starts</text><polygon fill="#000000" points="490.25,259.0664,496.25,262.0664,490.25,265.0664,490.25,259.0664" style="stroke: #000000; stroke-width: 1.0;"/><!--link MDManager to GROMACSCli--><path d="M624.74,272 C656.85,272 697.6,272 729.64,272 " fill="none" id="MDManager-GROMACSCli" style="stroke: #A80036; stroke-width: 1.0;"/><text fill="#000000" font-family="sans-serif" font-size="13" lengthAdjust="spacingAndGlyphs" textLength="56" x="642.75" y="265.0669">interacts</text><polygon fill="#000000" points="701.75,259.0664,707.75,262.0664,701.75,265.0664,701.75,259.0664" style="stroke: #000000; stroke-width: 1.0;"/><!--link RunManager to Reaction--><path d="M341.5,373.26 C341.5,400.67 341.5,428.63 341.5,449.85 " fill="none" id="RunManager-Reaction" style="stroke: #A80036; stroke-width: 1.0;"/><text fill="#000000" font-family="sans-serif" font-size="13" lengthAdjust="spacingAndGlyphs" textLength="37" x="342.5" y="416.0669">starts</text><polygon fill="#000000" points="356.5,425.1328,359.5,431.1328,362.5,425.1328,356.5,425.1328" style="stroke: #000000; stroke-width: 1.0;"/><!--link RunManager to DecisionStrategy--><path d="M432.15,366.73 C466.48,402.23 502.66,439.64 525.15,462.89 " fill="none" id="RunManager-DecisionStrategy" style="stroke: #A80036; stroke-width: 1.0;"/><text fill="#000000" font-family="sans-serif" font-size="13" lengthAdjust="spacingAndGlyphs" textLength="37" x="482.5" y="416.0669">starts</text><polygon fill="#000000" points="496.5,425.1328,499.5,431.1328,502.5,425.1328,496.5,425.1328" style="stroke: #000000; stroke-width: 1.0;"/><!--link ConversionRecipe to Reaction--><path d="M149.29,487 C184.56,487 227.13,487 263.23,487 " fill="none" id="ConversionRecipe-Reaction" style="stroke: #A80036; stroke-width: 1.0;"/><polygon fill="#000000" points="174.25,474.0664,168.25,477.0664,174.25,480.0664,174.25,474.0664" style="stroke: #000000; stroke-width: 1.0;"/><text fill="#000000" font-family="sans-serif" font-size="13" lengthAdjust="spacingAndGlyphs" textLength="65" x="180.25" y="480.0669">generates</text><!--link CoordinateChanger to RunManager--><path d="M164.74,272 C191.89,272 222.64,272 250.79,272 " fill="none" id="CoordinateChanger-RunManager" style="stroke: #A80036; stroke-width: 1.0;"/><polygon fill="#000000" points="189.75,259.0664,183.75,262.0664,189.75,265.0664,189.75,259.0664" style="stroke: #000000; stroke-width: 1.0;"/><text fill="#000000" font-family="sans-serif" font-size="13" lengthAdjust="spacingAndGlyphs" textLength="37" x="195.75" y="265.0669">starts</text><!--link TopologyChanger to RunManager--><path d="M209.95,75.02 C225.43,98.08 250.35,135.2 274.35,170.96 " fill="none" id="TopologyChanger-RunManager" style="stroke: #A80036; stroke-width: 1.0;"/><polygon fill="#000000" points="266.5,135,269.5,129,272.5,135,266.5,135" style="stroke: #000000; stroke-width: 1.0;"/><text fill="#000000" font-family="sans-serif" font-size="13" lengthAdjust="spacingAndGlyphs" textLength="37" x="252.5" y="150.0669">starts</text><!--link TopologyChanger to CoordinateChanger--><!--link MDManager to DecisionStrategy--><!--
@startuml classuml
class           RunManager{
config : Config
config_reactions
state : Enum
MDparams
rates 
run_md_min()
run_md_eq()
run_md()
query_reactions()
make_decision()
run_recipe(ConversionRecipe)
next()
}
class          Config{
path
...
read_yaml()
}
class           MDManager{
write_mdp()
do_md()
}
class           ConversionRecipe{
type
atom_idx
}
class           DecisionStrategy{
}
class           Reaction{
recipe: ConversionRecipe
get_rates()
}
class           HAT{

}
class           CoordinateChanger{
}
class           TopologyChanger{
}
package GROMACS{
interface GROMACSCli{
}
}

Reaction - -|> HAT
Config - - RunManager : reads <
RunManager - MDManager : > starts
MDManager - GROMACSCli : > interacts
RunManager - - Reaction : > starts
RunManager - - DecisionStrategy : > starts
ConversionRecipe - Reaction: < generates
CoordinateChanger - RunManager: < starts
TopologyChanger - RunManager: < starts
TopologyChanger -[hidden]-> CoordinateChanger
MDManager -[hidden]-> DecisionStrategy
@enduml

PlantUML version 1.2018.13(Mon Nov 26 18:11:51 CET 2018)
(GPL source distribution)
Java Runtime: OpenJDK Runtime Environment
JVM: OpenJDK 64-Bit Server VM
Java Version: 11.0.15+10-Ubuntu-0ubuntu0.20.04.1
Operating System: Linux
OS Version: 5.4.0-122-generic
Default Encoding: UTF-8
Language: en
Country: US
--></g></svg>