<?xml version="1.0" encoding="UTF-8" standalone="no"?><svg xmlns="http://www.w3.org/2000/svg" xmlns:xlink="http://www.w3.org/1999/xlink" contentScriptType="application/ecmascript" contentStyleType="text/css" height="568px" preserveAspectRatio="none" style="width:243px;height:568px;" version="1.1" viewBox="0 0 243 568" width="243px" zoomAndPan="magnify"><defs><filter height="300%" id="f1b3ti973e2pdx" width="300%" x="-1" y="-1"><feGaussianBlur result="blurOut" stdDeviation="2.0"/><feColorMatrix in="blurOut" result="blurOut2" type="matrix" values="0 0 0 0 0 0 0 0 0 0 0 0 0 0 0 0 0 0 .4 0"/><feOffset dx="4.0" dy="4.0" in="blurOut2" result="blurOut3"/><feBlend in="SourceGraphic" in2="blurOut3" mode="normal"/></filter></defs><g><ellipse cx="107.5" cy="20" fill="#000000" filter="url(#f1b3ti973e2pdx)" rx="10" ry="10" style="stroke: none; stroke-width: 1.0;"/><rect fill="#FEFECE" filter="url(#f1b3ti973e2pdx)" height="33.9688" rx="12.5" ry="12.5" style="stroke: #A80036; stroke-width: 1.5;" width="88" x="63.5" y="50"/><text fill="#000000" font-family="sans-serif" font-size="12" lengthAdjust="spacingAndGlyphs" textLength="68" x="73.5" y="71.1387">Read .yaml</text><rect fill="#FEFECE" filter="url(#f1b3ti973e2pdx)" height="33.9688" rx="12.5" ry="12.5" style="stroke: #A80036; stroke-width: 1.5;" width="89" x="63" y="103.9688"/><text fill="#000000" font-family="sans-serif" font-size="12" lengthAdjust="spacingAndGlyphs" textLength="69" x="73" y="125.1074">Run MD_eq</text><rect fill="#FEFECE" filter="url(#f1b3ti973e2pdx)" height="33.9688" rx="12.5" ry="12.5" style="stroke: #A80036; stroke-width: 1.5;" width="102" x="56.5" y="201.9375"/><text fill="#000000" font-family="sans-serif" font-size="12" lengthAdjust="spacingAndGlyphs" textLength="82" x="66.5" y="223.0762">Run MD_prod</text><rect fill="#FEFECE" filter="url(#f1b3ti973e2pdx)" height="33.9688" rx="12.5" ry="12.5" style="stroke: #A80036; stroke-width: 1.5;" width="119" x="48" y="255.9063"/><text fill="#000000" font-family="sans-serif" font-size="12" lengthAdjust="spacingAndGlyphs" textLength="99" x="58" y="277.0449">Query reactions</text><rect fill="#FEFECE" filter="url(#f1b3ti973e2pdx)" height="33.9688" rx="12.5" ry="12.5" style="stroke: #A80036; stroke-width: 1.5;" width="165" x="25" y="309.875"/><text fill="#000000" font-family="sans-serif" font-size="12" lengthAdjust="spacingAndGlyphs" textLength="145" x="35" y="331.0137">Make reaction decision</text><rect fill="#FEFECE" filter="url(#f1b3ti973e2pdx)" height="33.9688" rx="12.5" ry="12.5" style="stroke: #A80036; stroke-width: 1.5;" width="195" x="10" y="363.8438"/><text fill="#000000" font-family="sans-serif" font-size="12" lengthAdjust="spacingAndGlyphs" textLength="175" x="20" y="384.9824">Change system coordinates</text><rect fill="#FEFECE" filter="url(#f1b3ti973e2pdx)" height="33.9688" rx="12.5" ry="12.5" style="stroke: #A80036; stroke-width: 1.5;" width="174" x="20.5" y="417.8125"/><text fill="#000000" font-family="sans-serif" font-size="12" lengthAdjust="spacingAndGlyphs" textLength="154" x="30.5" y="438.9512">Change system topology</text><polygon fill="#FEFECE" filter="url(#f1b3ti973e2pdx)" points="107.5,157.9375,119.5,169.9375,107.5,181.9375,95.5,169.9375,107.5,157.9375" style="stroke: #A80036; stroke-width: 1.5;"/><polygon fill="#FEFECE" filter="url(#f1b3ti973e2pdx)" points="61,471.7813,154,471.7813,166,483.7813,154,495.7813,61,495.7813,49,483.7813,61,471.7813" style="stroke: #A80036; stroke-width: 1.5;"/><text fill="#000000" font-family="sans-serif" font-size="11" lengthAdjust="spacingAndGlyphs" textLength="93" x="61" y="487.5894">itermax reached</text><text fill="#000000" font-family="sans-serif" font-size="11" lengthAdjust="spacingAndGlyphs" textLength="14" x="166" y="481.187">no</text><ellipse cx="107.5" cy="547.1802" fill="none" filter="url(#f1b3ti973e2pdx)" rx="10" ry="10" style="stroke: #000000; stroke-width: 1.0;"/><ellipse cx="108" cy="547.6802" fill="#000000" filter="url(#f1b3ti973e2pdx)" rx="6" ry="6" style="stroke: none; stroke-width: 1.0;"/><line style="stroke: #A80036; stroke-width: 1.5;" x1="107.5" x2="107.5" y1="30" y2="50"/><polygon fill="#A80036" points="103.5,40,107.5,50,111.5,40,107.5,44" style="stroke: #A80036; stroke-width: 1.0;"/><line style="stroke: #A80036; stroke-width: 1.5;" x1="107.5" x2="107.5" y1="83.9688" y2="103.9688"/><polygon fill="#A80036" points="103.5,93.9688,107.5,103.9688,111.5,93.9688,107.5,97.9688" style="stroke: #A80036; stroke-width: 1.0;"/><line style="stroke: #A80036; stroke-width: 1.5;" x1="107.5" x2="107.5" y1="235.9063" y2="255.9063"/><polygon fill="#A80036" points="103.5,245.9063,107.5,255.9063,111.5,245.9063,107.5,249.9063" style="stroke: #A80036; stroke-width: 1.0;"/><line style="stroke: #A80036; stroke-width: 1.5;" x1="107.5" x2="107.5" y1="289.875" y2="309.875"/><polygon fill="#A80036" points="103.5,299.875,107.5,309.875,111.5,299.875,107.5,303.875" style="stroke: #A80036; stroke-width: 1.0;"/><line style="stroke: #A80036; stroke-width: 1.5;" x1="107.5" x2="107.5" y1="343.8438" y2="363.8438"/><polygon fill="#A80036" points="103.5,353.8438,107.5,363.8438,111.5,353.8438,107.5,357.8438" style="stroke: #A80036; stroke-width: 1.0;"/><line style="stroke: #A80036; stroke-width: 1.5;" x1="107.5" x2="107.5" y1="397.8125" y2="417.8125"/><polygon fill="#A80036" points="103.5,407.8125,107.5,417.8125,111.5,407.8125,107.5,411.8125" style="stroke: #A80036; stroke-width: 1.0;"/><line style="stroke: #A80036; stroke-width: 1.5;" x1="107.5" x2="107.5" y1="181.9375" y2="201.9375"/><polygon fill="#A80036" points="103.5,191.9375,107.5,201.9375,111.5,191.9375,107.5,195.9375" style="stroke: #A80036; stroke-width: 1.0;"/><line style="stroke: #A80036; stroke-width: 1.5;" x1="166" x2="217" y1="483.7813" y2="483.7813"/><polygon fill="#A80036" points="213,336.8594,217,326.8594,221,336.8594,217,332.8594" style="stroke: #A80036; stroke-width: 1.5;"/><line style="stroke: #A80036; stroke-width: 1.5;" x1="217" x2="217" y1="169.9375" y2="483.7813"/><line style="stroke: #A80036; stroke-width: 1.5;" x1="217" x2="119.5" y1="169.9375" y2="169.9375"/><polygon fill="#A80036" points="129.5,165.9375,119.5,169.9375,129.5,173.9375,125.5,169.9375" style="stroke: #A80036; stroke-width: 1.0;"/><line style="stroke: #A80036; stroke-width: 1.5;" x1="107.5" x2="107.5" y1="451.7813" y2="471.7813"/><polygon fill="#A80036" points="103.5,461.7813,107.5,471.7813,111.5,461.7813,107.5,465.7813" style="stroke: #A80036; stroke-width: 1.0;"/><line style="stroke: #A80036; stroke-width: 1.5;" x1="107.5" x2="107.5" y1="137.9375" y2="157.9375"/><polygon fill="#A80036" points="103.5,147.9375,107.5,157.9375,111.5,147.9375,107.5,151.9375" style="stroke: #A80036; stroke-width: 1.0;"/><line style="stroke: #A80036; stroke-width: 1.5;" x1="107.5" x2="107.5" y1="495.7813" y2="537.1802"/><polygon fill="#A80036" points="103.5,527.1802,107.5,537.1802,111.5,527.1802,107.5,531.1802" style="stroke: #A80036; stroke-width: 1.0;"/><text fill="#000000" font-family="sans-serif" font-size="11" lengthAdjust="spacingAndGlyphs" textLength="20" x="111.5" y="517.0859">yes</text><!--
@startuml flow
start
:Read .yaml;
:Run MD_eq;
repeat
 :Run MD_prod;
 :Query reactions;
 :Make reaction decision;
 :Change system coordinates;
 :Change system topology;
repeatwhile (itermax reached) is (no)
-> yes;
stop
@enduml

PlantUML version 1.2018.13(Mon Nov 26 18:11:51 CET 2018)
(GPL source distribution)
Java Runtime: OpenJDK Runtime Environment
JVM: OpenJDK 64-Bit Server VM
Java Version: 11.0.15+10-Ubuntu-0ubuntu0.20.04.1
Operating System: Linux
OS Version: 5.4.0-122-generic
Default Encoding: UTF-8
Language: en
Country: US
--></g></svg>