<?xml version="1.0" encoding="UTF-8" standalone="no"?><svg xmlns="http://www.w3.org/2000/svg" xmlns:xlink="http://www.w3.org/1999/xlink" contentScriptType="application/ecmascript" contentStyleType="text/css" height="694px" preserveAspectRatio="none" style="width:677px;height:694px;" version="1.1" viewBox="0 0 677 694" width="677px" zoomAndPan="magnify"><defs><filter height="300%" id="fdgkgi684nzeo" width="300%" x="-1" y="-1"><feGaussianBlur result="blurOut" stdDeviation="2.0"/><feColorMatrix in="blurOut" result="blurOut2" type="matrix" values="0 0 0 0 0 0 0 0 0 0 0 0 0 0 0 0 0 0 .4 0"/><feOffset dx="4.0" dy="4.0" in="blurOut2" result="blurOut3"/><feBlend in="SourceGraphic" in2="blurOut3" mode="normal"/></filter></defs><g><!--cluster GROMACS--><polygon fill="#FFFFFF" filter="url(#fdgkgi684nzeo)" points="517,238.5,602,238.5,609,260.7969,655,260.7969,655,337.5,517,337.5,517,238.5" style="stroke: #000000; stroke-width: 1.5;"/><line style="stroke: #000000; stroke-width: 1.5;" x1="517" x2="609" y1="260.7969" y2="260.7969"/><text fill="#000000" font-family="sans-serif" font-size="14" font-weight="bold" lengthAdjust="spacingAndGlyphs" textLength="79" x="521" y="253.4951">GROMACS</text><!--class GROMACSCli--><rect fill="#FEFECE" filter="url(#fdgkgi684nzeo)" height="48" id="GROMACSCli" style="stroke: #A80036; stroke-width: 1.5;" width="105" x="533.5" y="273.5"/><ellipse cx="548.5" cy="289.5" fill="#B4A7E5" rx="11" ry="11" style="stroke: #A80036; stroke-width: 1.0;"/><path d="M544.4219,285.2656 L544.4219,283.1094 L551.8125,283.1094 L551.8125,285.2656 L549.3438,285.2656 L549.3438,293.3438 L551.8125,293.3438 L551.8125,295.5 L544.4219,295.5 L544.4219,293.3438 L546.8906,293.3438 L546.8906,285.2656 L544.4219,285.2656 Z "/><text fill="#000000" font-family="sans-serif" font-size="12" font-style="italic" lengthAdjust="spacingAndGlyphs" textLength="73" x="562.5" y="293.6543">GROMACSCli</text><line style="stroke: #A80036; stroke-width: 1.5;" x1="534.5" x2="637.5" y1="305.5" y2="305.5"/><line style="stroke: #A80036; stroke-width: 1.5;" x1="534.5" x2="637.5" y1="313.5" y2="313.5"/><!--class RunManager--><rect fill="#FEFECE" filter="url(#fdgkgi684nzeo)" height="227.2656" id="RunManager" style="stroke: #A80036; stroke-width: 1.5;" width="181" x="246.5" y="184"/><ellipse cx="293.25" cy="200" fill="#ADD1B2" rx="11" ry="11" style="stroke: #A80036; stroke-width: 1.0;"/><path d="M296.2188,205.6406 Q295.6406,205.9375 295,206.0781 Q294.3594,206.2344 293.6563,206.2344 Q291.1563,206.2344 289.8281,204.5938 Q288.5156,202.9375 288.5156,199.8125 Q288.5156,196.6875 289.8281,195.0313 Q291.1563,193.375 293.6563,193.375 Q294.3594,193.375 295,193.5313 Q295.6563,193.6875 296.2188,193.9844 L296.2188,196.7031 Q295.5938,196.125 295,195.8594 Q294.4063,195.5781 293.7813,195.5781 Q292.4375,195.5781 291.75,196.6563 Q291.0625,197.7188 291.0625,199.8125 Q291.0625,201.9063 291.75,202.9844 Q292.4375,204.0469 293.7813,204.0469 Q294.4063,204.0469 295,203.7813 Q295.5938,203.5 296.2188,202.9219 L296.2188,205.6406 Z "/><text fill="#000000" font-family="sans-serif" font-size="12" lengthAdjust="spacingAndGlyphs" textLength="79" x="313.75" y="204.1543">RunManager</text><line style="stroke: #A80036; stroke-width: 1.5;" x1="247.5" x2="426.5" y1="216" y2="216"/><text fill="#000000" font-family="sans-serif" font-size="11" lengthAdjust="spacingAndGlyphs" textLength="82" x="252.5" y="230.2104">config : Config</text><text fill="#000000" font-family="sans-serif" font-size="11" lengthAdjust="spacingAndGlyphs" textLength="80" x="252.5" y="243.0151">tasks : Queue</text><text fill="#000000" font-family="sans-serif" font-size="11" lengthAdjust="spacingAndGlyphs" textLength="73" x="252.5" y="255.8198">state : Enum</text><text fill="#000000" font-family="sans-serif" font-size="11" lengthAdjust="spacingAndGlyphs" textLength="128" x="252.5" y="268.6245">filehist : list[TaskFiles]</text><text fill="#000000" font-family="sans-serif" font-size="11" lengthAdjust="spacingAndGlyphs" textLength="47" x="252.5" y="281.4292">iteration</text><text fill="#000000" font-family="sans-serif" font-size="11" lengthAdjust="spacingAndGlyphs" textLength="82" x="252.5" y="294.2339">chosen_recipe</text><line style="stroke: #A80036; stroke-width: 1.5;" x1="247.5" x2="426.5" y1="300.8281" y2="300.8281"/><text fill="#000000" font-family="sans-serif" font-size="11" lengthAdjust="spacingAndGlyphs" textLength="27" x="252.5" y="315.0386">run()</text><text fill="#000000" font-family="sans-serif" font-size="11" lengthAdjust="spacingAndGlyphs" textLength="78" x="252.5" y="327.8433">run_md_min()</text><text fill="#000000" font-family="sans-serif" font-size="11" lengthAdjust="spacingAndGlyphs" textLength="71" x="252.5" y="340.6479">run_md_eq()</text><text fill="#000000" font-family="sans-serif" font-size="11" lengthAdjust="spacingAndGlyphs" textLength="77" x="252.5" y="353.4526">run_md_pull()</text><text fill="#000000" font-family="sans-serif" font-size="11" lengthAdjust="spacingAndGlyphs" textLength="99" x="252.5" y="366.2573">query_reactions()</text><text fill="#000000" font-family="sans-serif" font-size="11" lengthAdjust="spacingAndGlyphs" textLength="108" x="252.5" y="379.062">decision_strategy()</text><text fill="#000000" font-family="sans-serif" font-size="11" lengthAdjust="spacingAndGlyphs" textLength="169" x="252.5" y="391.8667">run_recipe(ConversionRecipe)</text><text fill="#000000" font-family="sans-serif" font-size="11" lengthAdjust="spacingAndGlyphs" textLength="32" x="252.5" y="404.6714">next()</text><!--class Config--><rect fill="#FEFECE" filter="url(#fdgkgi684nzeo)" height="99.2188" id="Config" style="stroke: #A80036; stroke-width: 1.5;" width="71" x="301.5" y="8"/><ellipse cx="316.5" cy="24" fill="#ADD1B2" rx="11" ry="11" style="stroke: #A80036; stroke-width: 1.0;"/><path d="M319.4688,29.6406 Q318.8906,29.9375 318.25,30.0781 Q317.6094,30.2344 316.9063,30.2344 Q314.4063,30.2344 313.0781,28.5938 Q311.7656,26.9375 311.7656,23.8125 Q311.7656,20.6875 313.0781,19.0313 Q314.4063,17.375 316.9063,17.375 Q317.6094,17.375 318.25,17.5313 Q318.9063,17.6875 319.4688,17.9844 L319.4688,20.7031 Q318.8438,20.125 318.25,19.8594 Q317.6563,19.5781 317.0313,19.5781 Q315.6875,19.5781 315,20.6563 Q314.3125,21.7188 314.3125,23.8125 Q314.3125,25.9063 315,26.9844 Q315.6875,28.0469 317.0313,28.0469 Q317.6563,28.0469 318.25,27.7813 Q318.8438,27.5 319.4688,26.9219 L319.4688,29.6406 Z "/><text fill="#000000" font-family="sans-serif" font-size="12" lengthAdjust="spacingAndGlyphs" textLength="39" x="330.5" y="28.1543">Config</text><line style="stroke: #A80036; stroke-width: 1.5;" x1="302.5" x2="371.5" y1="40" y2="40"/><text fill="#000000" font-family="sans-serif" font-size="11" lengthAdjust="spacingAndGlyphs" textLength="53" x="307.5" y="54.2104">file paths</text><text fill="#000000" font-family="sans-serif" font-size="11" lengthAdjust="spacingAndGlyphs" textLength="55" x="307.5" y="67.0151">sequence</text><text fill="#000000" font-family="sans-serif" font-size="11" lengthAdjust="spacingAndGlyphs" textLength="12" x="307.5" y="79.8198">...</text><line style="stroke: #A80036; stroke-width: 1.5;" x1="302.5" x2="371.5" y1="86.4141" y2="86.4141"/><text fill="#000000" font-family="sans-serif" font-size="11" lengthAdjust="spacingAndGlyphs" textLength="49" x="307.5" y="100.6245">__init__()</text><!--class ConversionRecipe--><rect fill="#FEFECE" filter="url(#fdgkgi684nzeo)" height="73.6094" id="ConversionRecipe" style="stroke: #A80036; stroke-width: 1.5;" width="143" x="35.5" y="488"/><ellipse cx="50.5" cy="504" fill="#ADD1B2" rx="11" ry="11" style="stroke: #A80036; stroke-width: 1.0;"/><path d="M53.4688,509.6406 Q52.8906,509.9375 52.25,510.0781 Q51.6094,510.2344 50.9063,510.2344 Q48.4063,510.2344 47.0781,508.5938 Q45.7656,506.9375 45.7656,503.8125 Q45.7656,500.6875 47.0781,499.0313 Q48.4063,497.375 50.9063,497.375 Q51.6094,497.375 52.25,497.5313 Q52.9063,497.6875 53.4688,497.9844 L53.4688,500.7031 Q52.8438,500.125 52.25,499.8594 Q51.6563,499.5781 51.0313,499.5781 Q49.6875,499.5781 49,500.6563 Q48.3125,501.7188 48.3125,503.8125 Q48.3125,505.9063 49,506.9844 Q49.6875,508.0469 51.0313,508.0469 Q51.6563,508.0469 52.25,507.7813 Q52.8438,507.5 53.4688,506.9219 L53.4688,509.6406 Z "/><text fill="#000000" font-family="sans-serif" font-size="12" lengthAdjust="spacingAndGlyphs" textLength="111" x="64.5" y="508.1543">ConversionRecipe</text><line style="stroke: #A80036; stroke-width: 1.5;" x1="36.5" x2="177.5" y1="520" y2="520"/><text fill="#000000" font-family="sans-serif" font-size="11" lengthAdjust="spacingAndGlyphs" textLength="24" x="41.5" y="534.2104">type</text><text fill="#000000" font-family="sans-serif" font-size="11" lengthAdjust="spacingAndGlyphs" textLength="51" x="41.5" y="547.0151">atom_idx</text><line style="stroke: #A80036; stroke-width: 1.5;" x1="36.5" x2="177.5" y1="553.6094" y2="553.6094"/><!--class Reaction--><rect fill="#FEFECE" filter="url(#fdgkgi684nzeo)" height="48" id="Reaction" style="stroke: #A80036; stroke-width: 1.5;" width="87" x="293.5" y="501"/><ellipse cx="308.5" cy="517" fill="#ADD1B2" rx="11" ry="11" style="stroke: #A80036; stroke-width: 1.0;"/><path d="M311.4688,522.6406 Q310.8906,522.9375 310.25,523.0781 Q309.6094,523.2344 308.9063,523.2344 Q306.4063,523.2344 305.0781,521.5938 Q303.7656,519.9375 303.7656,516.8125 Q303.7656,513.6875 305.0781,512.0313 Q306.4063,510.375 308.9063,510.375 Q309.6094,510.375 310.25,510.5313 Q310.9063,510.6875 311.4688,510.9844 L311.4688,513.7031 Q310.8438,513.125 310.25,512.8594 Q309.6563,512.5781 309.0313,512.5781 Q307.6875,512.5781 307,513.6563 Q306.3125,514.7188 306.3125,516.8125 Q306.3125,518.9063 307,519.9844 Q307.6875,521.0469 309.0313,521.0469 Q309.6563,521.0469 310.25,520.7813 Q310.8438,520.5 311.4688,519.9219 L311.4688,522.6406 Z "/><text fill="#000000" font-family="sans-serif" font-size="12" lengthAdjust="spacingAndGlyphs" textLength="55" x="322.5" y="521.1543">Reaction</text><line style="stroke: #A80036; stroke-width: 1.5;" x1="294.5" x2="379.5" y1="533" y2="533"/><line style="stroke: #A80036; stroke-width: 1.5;" x1="294.5" x2="379.5" y1="541" y2="541"/><!--class HAT--><rect fill="#FEFECE" filter="url(#fdgkgi684nzeo)" height="48" id="HAT" style="stroke: #A80036; stroke-width: 1.5;" width="56" x="245" y="629.5"/><ellipse cx="260" cy="645.5" fill="#ADD1B2" rx="11" ry="11" style="stroke: #A80036; stroke-width: 1.0;"/><path d="M262.9688,651.1406 Q262.3906,651.4375 261.75,651.5781 Q261.1094,651.7344 260.4063,651.7344 Q257.9063,651.7344 256.5781,650.0938 Q255.2656,648.4375 255.2656,645.3125 Q255.2656,642.1875 256.5781,640.5313 Q257.9063,638.875 260.4063,638.875 Q261.1094,638.875 261.75,639.0313 Q262.4063,639.1875 262.9688,639.4844 L262.9688,642.2031 Q262.3438,641.625 261.75,641.3594 Q261.1563,641.0781 260.5313,641.0781 Q259.1875,641.0781 258.5,642.1563 Q257.8125,643.2188 257.8125,645.3125 Q257.8125,647.4063 258.5,648.4844 Q259.1875,649.5469 260.5313,649.5469 Q261.1563,649.5469 261.75,649.2813 Q262.3438,649 262.9688,648.4219 L262.9688,651.1406 Z "/><text fill="#000000" font-family="sans-serif" font-size="12" lengthAdjust="spacingAndGlyphs" textLength="24" x="274" y="649.6543">HAT</text><line style="stroke: #A80036; stroke-width: 1.5;" x1="246" x2="300" y1="661.5" y2="661.5"/><line style="stroke: #A80036; stroke-width: 1.5;" x1="246" x2="300" y1="669.5" y2="669.5"/><!--class HomolyticBreak--><rect fill="#FEFECE" filter="url(#fdgkgi684nzeo)" height="60.8047" id="HomolyticBreak" style="stroke: #A80036; stroke-width: 1.5;" width="129" x="336.5" y="623"/><ellipse cx="351.95" cy="639" fill="#ADD1B2" rx="11" ry="11" style="stroke: #A80036; stroke-width: 1.0;"/><path d="M354.9188,644.6406 Q354.3406,644.9375 353.7,645.0781 Q353.0594,645.2344 352.3563,645.2344 Q349.8563,645.2344 348.5281,643.5938 Q347.2156,641.9375 347.2156,638.8125 Q347.2156,635.6875 348.5281,634.0313 Q349.8563,632.375 352.3563,632.375 Q353.0594,632.375 353.7,632.5313 Q354.3563,632.6875 354.9188,632.9844 L354.9188,635.7031 Q354.2938,635.125 353.7,634.8594 Q353.1063,634.5781 352.4813,634.5781 Q351.1375,634.5781 350.45,635.6563 Q349.7625,636.7188 349.7625,638.8125 Q349.7625,640.9063 350.45,641.9844 Q351.1375,643.0469 352.4813,643.0469 Q353.1063,643.0469 353.7,642.7813 Q354.2938,642.5 354.9188,641.9219 L354.9188,644.6406 Z "/><text fill="#000000" font-family="sans-serif" font-size="12" lengthAdjust="spacingAndGlyphs" textLength="96" x="366.05" y="643.1543">HomolyticBreak</text><line style="stroke: #A80036; stroke-width: 1.5;" x1="337.5" x2="464.5" y1="655" y2="655"/><line style="stroke: #A80036; stroke-width: 1.5;" x1="337.5" x2="464.5" y1="663" y2="663"/><text fill="#000000" font-family="sans-serif" font-size="11" lengthAdjust="spacingAndGlyphs" textLength="117" x="342.5" y="677.2104">get_reaction_result()</text><!--class CoordinateChanger--><rect fill="#FEFECE" filter="url(#fdgkgi684nzeo)" height="48" id="CoordinateChanger" style="stroke: #A80036; stroke-width: 1.5;" width="154" x="6" y="273.5"/><ellipse cx="21" cy="289.5" fill="#ADD1B2" rx="11" ry="11" style="stroke: #A80036; stroke-width: 1.0;"/><path d="M23.9688,295.1406 Q23.3906,295.4375 22.75,295.5781 Q22.1094,295.7344 21.4063,295.7344 Q18.9063,295.7344 17.5781,294.0938 Q16.2656,292.4375 16.2656,289.3125 Q16.2656,286.1875 17.5781,284.5313 Q18.9063,282.875 21.4063,282.875 Q22.1094,282.875 22.75,283.0313 Q23.4063,283.1875 23.9688,283.4844 L23.9688,286.2031 Q23.3438,285.625 22.75,285.3594 Q22.1563,285.0781 21.5313,285.0781 Q20.1875,285.0781 19.5,286.1563 Q18.8125,287.2188 18.8125,289.3125 Q18.8125,291.4063 19.5,292.4844 Q20.1875,293.5469 21.5313,293.5469 Q22.1563,293.5469 22.75,293.2813 Q23.3438,293 23.9688,292.4219 L23.9688,295.1406 Z "/><text fill="#000000" font-family="sans-serif" font-size="12" lengthAdjust="spacingAndGlyphs" textLength="122" x="35" y="293.6543">CoordinateChanger</text><line style="stroke: #A80036; stroke-width: 1.5;" x1="7" x2="159" y1="305.5" y2="305.5"/><line style="stroke: #A80036; stroke-width: 1.5;" x1="7" x2="159" y1="313.5" y2="313.5"/><!--class TopologyChanger--><rect fill="#FEFECE" filter="url(#fdgkgi684nzeo)" height="48" id="TopologyChanger" style="stroke: #A80036; stroke-width: 1.5;" width="141" x="121.5" y="33.5"/><ellipse cx="136.5" cy="49.5" fill="#ADD1B2" rx="11" ry="11" style="stroke: #A80036; stroke-width: 1.0;"/><path d="M139.4688,55.1406 Q138.8906,55.4375 138.25,55.5781 Q137.6094,55.7344 136.9063,55.7344 Q134.4063,55.7344 133.0781,54.0938 Q131.7656,52.4375 131.7656,49.3125 Q131.7656,46.1875 133.0781,44.5313 Q134.4063,42.875 136.9063,42.875 Q137.6094,42.875 138.25,43.0313 Q138.9063,43.1875 139.4688,43.4844 L139.4688,46.2031 Q138.8438,45.625 138.25,45.3594 Q137.6563,45.0781 137.0313,45.0781 Q135.6875,45.0781 135,46.1563 Q134.3125,47.2188 134.3125,49.3125 Q134.3125,51.4063 135,52.4844 Q135.6875,53.5469 137.0313,53.5469 Q137.6563,53.5469 138.25,53.2813 Q138.8438,53 139.4688,52.4219 L139.4688,55.1406 Z "/><text fill="#000000" font-family="sans-serif" font-size="12" lengthAdjust="spacingAndGlyphs" textLength="109" x="150.5" y="53.6543">TopologyChanger</text><line style="stroke: #A80036; stroke-width: 1.5;" x1="122.5" x2="261.5" y1="65.5" y2="65.5"/><line style="stroke: #A80036; stroke-width: 1.5;" x1="122.5" x2="261.5" y1="73.5" y2="73.5"/><!--link Reaction to HAT--><path d="M325.26,549.2 C316.47,566.59 304.2,590.83 293.76,611.46 " fill="none" id="Reaction-HAT" style="stroke: #A80036; stroke-width: 1.0;"/><polygon fill="none" points="299.94,614.76,284.66,629.45,287.45,608.44,299.94,614.76" style="stroke: #A80036; stroke-width: 1.0;"/><!--link Reaction to HomolyticBreak--><path d="M348.74,549.2 C356.59,564.72 367.2,585.69 376.81,604.69 " fill="none" id="Reaction-HomolyticBreak" style="stroke: #A80036; stroke-width: 1.0;"/><polygon fill="none" points="383.16,601.74,385.95,622.75,370.67,608.06,383.16,601.74" style="stroke: #A80036; stroke-width: 1.0;"/><!--link Config to RunManager--><path d="M337,107.24 C337,129.54 337,156.97 337,183.96 " fill="none" id="Config-RunManager" style="stroke: #A80036; stroke-width: 1.0;"/><polygon fill="#000000" points="351.5,148,354.5,142,357.5,148,351.5,148" style="stroke: #000000; stroke-width: 1.0;"/><text fill="#000000" font-family="sans-serif" font-size="13" lengthAdjust="spacingAndGlyphs" textLength="36" x="338" y="163.0669">reads</text><!--link RunManager to GROMACSCli--><path d="M427.6,297.5 C463.2,297.5 502.8,297.5 533.5,297.5 " fill="none" id="RunManager-GROMACSCli" style="stroke: #A80036; stroke-width: 1.0;"/><text fill="#000000" font-family="sans-serif" font-size="13" lengthAdjust="spacingAndGlyphs" textLength="56" x="446" y="290.5669">interacts</text><polygon fill="#000000" points="505,284.5664,511,287.5664,505,290.5664,505,284.5664" style="stroke: #000000; stroke-width: 1.0;"/><!--link RunManager to Reaction--><path d="M337,411.25 C337,445.16 337,479.08 337,500.72 " fill="none" id="RunManager-Reaction" style="stroke: #A80036; stroke-width: 1.0;"/><text fill="#000000" font-family="sans-serif" font-size="13" lengthAdjust="spacingAndGlyphs" textLength="37" x="338" y="454.0669">starts</text><polygon fill="#000000" points="352,463.1328,355,469.1328,358,463.1328,352,463.1328" style="stroke: #000000; stroke-width: 1.0;"/><!--link ConversionRecipe to Reaction--><path d="M178.51,525 C216.1,525 260.95,525 293.33,525 " fill="none" id="ConversionRecipe-Reaction" style="stroke: #A80036; stroke-width: 1.0;"/><polygon fill="#000000" points="204,512.0664,198,515.0664,204,518.0664,204,512.0664" style="stroke: #000000; stroke-width: 1.0;"/><text fill="#000000" font-family="sans-serif" font-size="13" lengthAdjust="spacingAndGlyphs" textLength="65" x="210" y="518.0669">generates</text><!--link CoordinateChanger to RunManager--><path d="M160.24,297.5 C187.39,297.5 218.14,297.5 246.29,297.5 " fill="none" id="CoordinateChanger-RunManager" style="stroke: #A80036; stroke-width: 1.0;"/><polygon fill="#000000" points="185.25,284.5664,179.25,287.5664,185.25,290.5664,185.25,284.5664" style="stroke: #000000; stroke-width: 1.0;"/><text fill="#000000" font-family="sans-serif" font-size="13" lengthAdjust="spacingAndGlyphs" textLength="37" x="191.25" y="290.5669">starts</text><!--link TopologyChanger to RunManager--><path d="M206.17,81.75 C220.85,105.85 244.89,145.32 268.39,183.89 " fill="none" id="TopologyChanger-RunManager" style="stroke: #A80036; stroke-width: 1.0;"/><polygon fill="#000000" points="263,148,266,142,269,148,263,148" style="stroke: #000000; stroke-width: 1.0;"/><text fill="#000000" font-family="sans-serif" font-size="13" lengthAdjust="spacingAndGlyphs" textLength="37" x="249" y="163.0669">starts</text><!--link TopologyChanger to CoordinateChanger--><!--
@startuml
class           RunManager{
config : Config
tasks : Queue
state : Enum
filehist : list[TaskFiles]
iteration
chosen_recipe
run()
run_md_min()
run_md_eq()
run_md_pull()
query_reactions()
decision_strategy()
run_recipe(ConversionRecipe)
next()
}
class          Config{
file paths
sequence
...
__init__()
}
class           ConversionRecipe{
type
atom_idx
}

class           Reaction{

}
class           HAT{

}
class           HomolyticBreak{
get_reaction_result()
}
class           CoordinateChanger{
}
class           TopologyChanger{
}
package GROMACS{
interface GROMACSCli{
}
}

Reaction - -|> HAT
Reaction - -|> HomolyticBreak
Config - - RunManager : reads <
RunManager -right- GROMACSCli : > interacts
RunManager - - Reaction : > starts
ConversionRecipe - Reaction: < generates
CoordinateChanger - RunManager: < starts
TopologyChanger - RunManager: < starts
TopologyChanger -[hidden]-> CoordinateChanger
@enduml

PlantUML version 1.2018.13(Mon Nov 26 18:11:51 CET 2018)
(GPL source distribution)
Java Runtime: OpenJDK Runtime Environment
JVM: OpenJDK 64-Bit Server VM
Java Version: 11.0.13+8-Ubuntu-0ubuntu1.20.04
Operating System: Linux
OS Version: 5.4.0-99-generic
Default Encoding: UTF-8
Language: en
Country: US
--></g></svg>