<?xml version="1.0" encoding="UTF-8" standalone="no"?><svg xmlns="http://www.w3.org/2000/svg" xmlns:xlink="http://www.w3.org/1999/xlink" contentScriptType="application/ecmascript" contentStyleType="text/css" height="609px" preserveAspectRatio="none" style="width:571px;height:609px;" version="1.1" viewBox="0 0 571 609" width="571px" zoomAndPan="magnify"><defs><filter height="300%" id="f1m5uqg4k4b4og" width="300%" x="-1" y="-1"><feGaussianBlur result="blurOut" stdDeviation="2.0"/><feColorMatrix in="blurOut" result="blurOut2" type="matrix" values="0 0 0 0 0 0 0 0 0 0 0 0 0 0 0 0 0 0 .4 0"/><feOffset dx="4.0" dy="4.0" in="blurOut2" result="blurOut3"/><feBlend in="SourceGraphic" in2="blurOut3" mode="normal"/></filter></defs><g><!--cluster GROMACS--><polygon fill="#FFFFFF" filter="url(#f1m5uqg4k4b4og)" points="401.5,202.5,486.5,202.5,493.5,224.7969,549.5,224.7969,549.5,301.5,401.5,301.5,401.5,202.5" style="stroke: #000000; stroke-width: 1.5;"/><line style="stroke: #000000; stroke-width: 1.5;" x1="401.5" x2="493.5" y1="224.7969" y2="224.7969"/><text fill="#000000" font-family="sans-serif" font-size="14" font-weight="bold" lengthAdjust="spacingAndGlyphs" textLength="79" x="405.5" y="217.4951">GROMACS</text><!--class GROMACS_CLI--><rect fill="#FEFECE" filter="url(#f1m5uqg4k4b4og)" height="48" id="GROMACS_CLI" style="stroke: #A80036; stroke-width: 1.5;" width="116" x="417.5" y="237.5"/><ellipse cx="432.5" cy="253.5" fill="#B4A7E5" rx="11" ry="11" style="stroke: #A80036; stroke-width: 1.0;"/><path d="M428.4219,249.2656 L428.4219,247.1094 L435.8125,247.1094 L435.8125,249.2656 L433.3438,249.2656 L433.3438,257.3438 L435.8125,257.3438 L435.8125,259.5 L428.4219,259.5 L428.4219,257.3438 L430.8906,257.3438 L430.8906,249.2656 L428.4219,249.2656 Z "/><text fill="#000000" font-family="sans-serif" font-size="12" font-style="italic" lengthAdjust="spacingAndGlyphs" textLength="84" x="446.5" y="257.6543">GROMACS_CLI</text><line style="stroke: #A80036; stroke-width: 1.5;" x1="418.5" x2="532.5" y1="269.5" y2="269.5"/><line style="stroke: #A80036; stroke-width: 1.5;" x1="418.5" x2="532.5" y1="277.5" y2="277.5"/><!--class RunManager--><rect fill="#FEFECE" filter="url(#f1m5uqg4k4b4og)" height="188.8516" id="RunManager" style="stroke: #A80036; stroke-width: 1.5;" width="206" x="176.5" y="167"/><ellipse cx="235.75" cy="183" fill="#ADD1B2" rx="11" ry="11" style="stroke: #A80036; stroke-width: 1.0;"/><path d="M238.7188,188.6406 Q238.1406,188.9375 237.5,189.0781 Q236.8594,189.2344 236.1563,189.2344 Q233.6563,189.2344 232.3281,187.5938 Q231.0156,185.9375 231.0156,182.8125 Q231.0156,179.6875 232.3281,178.0313 Q233.6563,176.375 236.1563,176.375 Q236.8594,176.375 237.5,176.5313 Q238.1563,176.6875 238.7188,176.9844 L238.7188,179.7031 Q238.0938,179.125 237.5,178.8594 Q236.9063,178.5781 236.2813,178.5781 Q234.9375,178.5781 234.25,179.6563 Q233.5625,180.7188 233.5625,182.8125 Q233.5625,184.9063 234.25,185.9844 Q234.9375,187.0469 236.2813,187.0469 Q236.9063,187.0469 237.5,186.7813 Q238.0938,186.5 238.7188,185.9219 L238.7188,188.6406 Z "/><text fill="#000000" font-family="sans-serif" font-size="12" lengthAdjust="spacingAndGlyphs" textLength="79" x="256.25" y="187.1543">RunManager</text><line style="stroke: #A80036; stroke-width: 1.5;" x1="177.5" x2="381.5" y1="199" y2="199"/><text fill="#000000" font-family="sans-serif" font-size="11" lengthAdjust="spacingAndGlyphs" textLength="82" x="182.5" y="213.2104">config : Config</text><text fill="#000000" font-family="sans-serif" font-size="11" lengthAdjust="spacingAndGlyphs" textLength="80" x="182.5" y="226.0151">tasks : Queue</text><text fill="#000000" font-family="sans-serif" font-size="11" lengthAdjust="spacingAndGlyphs" textLength="29" x="182.5" y="238.8198">state</text><text fill="#000000" font-family="sans-serif" font-size="11" lengthAdjust="spacingAndGlyphs" textLength="60" x="182.5" y="251.6245">file history</text><text fill="#000000" font-family="sans-serif" font-size="11" lengthAdjust="spacingAndGlyphs" textLength="82" x="182.5" y="264.4292">chosen_recipe</text><line style="stroke: #A80036; stroke-width: 1.5;" x1="177.5" x2="381.5" y1="271.0234" y2="271.0234"/><text fill="#000000" font-family="sans-serif" font-size="11" lengthAdjust="spacingAndGlyphs" textLength="27" x="182.5" y="285.2339">run()</text><text fill="#000000" font-family="sans-serif" font-size="11" lengthAdjust="spacingAndGlyphs" textLength="50" x="182.5" y="298.0386">run_MD()</text><text fill="#000000" font-family="sans-serif" font-size="11" lengthAdjust="spacingAndGlyphs" textLength="99" x="182.5" y="310.8433">query_reactions()</text><text fill="#000000" font-family="sans-serif" font-size="11" lengthAdjust="spacingAndGlyphs" textLength="97" x="182.5" y="323.6479">decide_reaction()</text><text fill="#000000" font-family="sans-serif" font-size="11" lengthAdjust="spacingAndGlyphs" textLength="194" x="182.5" y="336.4526">execute_recipe(ConversionRecipe)</text><text fill="#000000" font-family="sans-serif" font-size="11" lengthAdjust="spacingAndGlyphs" textLength="32" x="182.5" y="349.2573">next()</text><!--class Config--><rect fill="#FEFECE" filter="url(#f1m5uqg4k4b4og)" height="99.2188" id="Config" style="stroke: #A80036; stroke-width: 1.5;" width="95" x="232" y="8"/><ellipse cx="257.8" cy="24" fill="#ADD1B2" rx="11" ry="11" style="stroke: #A80036; stroke-width: 1.0;"/><path d="M260.7688,29.6406 Q260.1906,29.9375 259.55,30.0781 Q258.9094,30.2344 258.2063,30.2344 Q255.7063,30.2344 254.3781,28.5938 Q253.0656,26.9375 253.0656,23.8125 Q253.0656,20.6875 254.3781,19.0313 Q255.7063,17.375 258.2063,17.375 Q258.9094,17.375 259.55,17.5313 Q260.2063,17.6875 260.7688,17.9844 L260.7688,20.7031 Q260.1438,20.125 259.55,19.8594 Q258.9563,19.5781 258.3313,19.5781 Q256.9875,19.5781 256.3,20.6563 Q255.6125,21.7188 255.6125,23.8125 Q255.6125,25.9063 256.3,26.9844 Q256.9875,28.0469 258.3313,28.0469 Q258.9563,28.0469 259.55,27.7813 Q260.1438,27.5 260.7688,26.9219 L260.7688,29.6406 Z "/><text fill="#000000" font-family="sans-serif" font-size="12" lengthAdjust="spacingAndGlyphs" textLength="39" x="274.2" y="28.1543">Config</text><line style="stroke: #A80036; stroke-width: 1.5;" x1="233" x2="326" y1="40" y2="40"/><text fill="#000000" font-family="sans-serif" font-size="11" lengthAdjust="spacingAndGlyphs" textLength="53" x="238" y="54.2104">file paths</text><text fill="#000000" font-family="sans-serif" font-size="11" lengthAdjust="spacingAndGlyphs" textLength="83" x="238" y="67.0151">task sequence</text><text fill="#000000" font-family="sans-serif" font-size="11" lengthAdjust="spacingAndGlyphs" textLength="12" x="238" y="79.8198">...</text><line style="stroke: #A80036; stroke-width: 1.5;" x1="233" x2="326" y1="86.4141" y2="86.4141"/><text fill="#000000" font-family="sans-serif" font-size="11" lengthAdjust="spacingAndGlyphs" textLength="49" x="238" y="100.6245">__init__()</text><!--class ConversionRecipe--><rect fill="#FEFECE" filter="url(#f1m5uqg4k4b4og)" height="73.6094" id="ConversionRecipe" style="stroke: #A80036; stroke-width: 1.5;" width="143" x="37" y="416"/><ellipse cx="52" cy="432" fill="#ADD1B2" rx="11" ry="11" style="stroke: #A80036; stroke-width: 1.0;"/><path d="M54.9688,437.6406 Q54.3906,437.9375 53.75,438.0781 Q53.1094,438.2344 52.4063,438.2344 Q49.9063,438.2344 48.5781,436.5938 Q47.2656,434.9375 47.2656,431.8125 Q47.2656,428.6875 48.5781,427.0313 Q49.9063,425.375 52.4063,425.375 Q53.1094,425.375 53.75,425.5313 Q54.4063,425.6875 54.9688,425.9844 L54.9688,428.7031 Q54.3438,428.125 53.75,427.8594 Q53.1563,427.5781 52.5313,427.5781 Q51.1875,427.5781 50.5,428.6563 Q49.8125,429.7188 49.8125,431.8125 Q49.8125,433.9063 50.5,434.9844 Q51.1875,436.0469 52.5313,436.0469 Q53.1563,436.0469 53.75,435.7813 Q54.3438,435.5 54.9688,434.9219 L54.9688,437.6406 Z "/><text fill="#000000" font-family="sans-serif" font-size="12" lengthAdjust="spacingAndGlyphs" textLength="111" x="66" y="436.1543">ConversionRecipe</text><line style="stroke: #A80036; stroke-width: 1.5;" x1="38" x2="179" y1="448" y2="448"/><text fill="#000000" font-family="sans-serif" font-size="11" lengthAdjust="spacingAndGlyphs" textLength="24" x="43" y="462.2104">type</text><text fill="#000000" font-family="sans-serif" font-size="11" lengthAdjust="spacingAndGlyphs" textLength="51" x="43" y="475.0151">atom_idx</text><line style="stroke: #A80036; stroke-width: 1.5;" x1="38" x2="179" y1="481.6094" y2="481.6094"/><!--class Reaction--><rect fill="#FEFECE" filter="url(#f1m5uqg4k4b4og)" height="60.8047" id="Reaction" style="stroke: #A80036; stroke-width: 1.5;" width="129" x="215" y="422.5"/><ellipse cx="248.9" cy="438.5" fill="#A9DCDF" rx="11" ry="11" style="stroke: #A80036; stroke-width: 1.0;"/><path d="M249.0094,433.8438 L247.8531,438.9219 L250.1813,438.9219 L249.0094,433.8438 Z M247.525,431.6094 L250.5094,431.6094 L253.8688,444 L251.4156,444 L250.65,440.9375 L247.3688,440.9375 L246.6188,444 L244.1813,444 L247.525,431.6094 Z "/><text fill="#000000" font-family="sans-serif" font-size="12" font-style="italic" lengthAdjust="spacingAndGlyphs" textLength="55" x="267.1" y="442.6543">Reaction</text><line style="stroke: #A80036; stroke-width: 1.5;" x1="216" x2="343" y1="454.5" y2="454.5"/><line style="stroke: #A80036; stroke-width: 1.5;" x1="216" x2="343" y1="462.5" y2="462.5"/><text fill="#000000" font-family="sans-serif" font-size="11" lengthAdjust="spacingAndGlyphs" textLength="117" x="221" y="476.7104">get_reaction_result()</text><!--class HAT--><rect fill="#FEFECE" filter="url(#f1m5uqg4k4b4og)" height="48" id="HAT" style="stroke: #A80036; stroke-width: 1.5;" width="56" x="188.5" y="550"/><ellipse cx="203.5" cy="566" fill="#ADD1B2" rx="11" ry="11" style="stroke: #A80036; stroke-width: 1.0;"/><path d="M206.4688,571.6406 Q205.8906,571.9375 205.25,572.0781 Q204.6094,572.2344 203.9063,572.2344 Q201.4063,572.2344 200.0781,570.5938 Q198.7656,568.9375 198.7656,565.8125 Q198.7656,562.6875 200.0781,561.0313 Q201.4063,559.375 203.9063,559.375 Q204.6094,559.375 205.25,559.5313 Q205.9063,559.6875 206.4688,559.9844 L206.4688,562.7031 Q205.8438,562.125 205.25,561.8594 Q204.6563,561.5781 204.0313,561.5781 Q202.6875,561.5781 202,562.6563 Q201.3125,563.7188 201.3125,565.8125 Q201.3125,567.9063 202,568.9844 Q202.6875,570.0469 204.0313,570.0469 Q204.6563,570.0469 205.25,569.7813 Q205.8438,569.5 206.4688,568.9219 L206.4688,571.6406 Z "/><text fill="#000000" font-family="sans-serif" font-size="12" lengthAdjust="spacingAndGlyphs" textLength="24" x="217.5" y="570.1543">HAT</text><line style="stroke: #A80036; stroke-width: 1.5;" x1="189.5" x2="243.5" y1="582" y2="582"/><line style="stroke: #A80036; stroke-width: 1.5;" x1="189.5" x2="243.5" y1="590" y2="590"/><!--class HomolyticBreak--><rect fill="#FEFECE" filter="url(#f1m5uqg4k4b4og)" height="48" id="HomolyticBreak" style="stroke: #A80036; stroke-width: 1.5;" width="128" x="279.5" y="550"/><ellipse cx="294.5" cy="566" fill="#ADD1B2" rx="11" ry="11" style="stroke: #A80036; stroke-width: 1.0;"/><path d="M297.4688,571.6406 Q296.8906,571.9375 296.25,572.0781 Q295.6094,572.2344 294.9063,572.2344 Q292.4063,572.2344 291.0781,570.5938 Q289.7656,568.9375 289.7656,565.8125 Q289.7656,562.6875 291.0781,561.0313 Q292.4063,559.375 294.9063,559.375 Q295.6094,559.375 296.25,559.5313 Q296.9063,559.6875 297.4688,559.9844 L297.4688,562.7031 Q296.8438,562.125 296.25,561.8594 Q295.6563,561.5781 295.0313,561.5781 Q293.6875,561.5781 293,562.6563 Q292.3125,563.7188 292.3125,565.8125 Q292.3125,567.9063 293,568.9844 Q293.6875,570.0469 295.0313,570.0469 Q295.6563,570.0469 296.25,569.7813 Q296.8438,569.5 297.4688,568.9219 L297.4688,571.6406 Z "/><text fill="#000000" font-family="sans-serif" font-size="12" lengthAdjust="spacingAndGlyphs" textLength="96" x="308.5" y="570.1543">HomolyticBreak</text><line style="stroke: #A80036; stroke-width: 1.5;" x1="280.5" x2="406.5" y1="582" y2="582"/><line style="stroke: #A80036; stroke-width: 1.5;" x1="280.5" x2="406.5" y1="590" y2="590"/><!--class ChangeManager--><rect fill="#FEFECE" filter="url(#f1m5uqg4k4b4og)" height="60.8047" id="ChangeManager" style="stroke: #A80036; stroke-width: 1.5;" width="135" x="6" y="231"/><ellipse cx="21" cy="247" fill="#ADD1B2" rx="11" ry="11" style="stroke: #A80036; stroke-width: 1.0;"/><path d="M23.9688,252.6406 Q23.3906,252.9375 22.75,253.0781 Q22.1094,253.2344 21.4063,253.2344 Q18.9063,253.2344 17.5781,251.5938 Q16.2656,249.9375 16.2656,246.8125 Q16.2656,243.6875 17.5781,242.0313 Q18.9063,240.375 21.4063,240.375 Q22.1094,240.375 22.75,240.5313 Q23.4063,240.6875 23.9688,240.9844 L23.9688,243.7031 Q23.3438,243.125 22.75,242.8594 Q22.1563,242.5781 21.5313,242.5781 Q20.1875,242.5781 19.5,243.6563 Q18.8125,244.7188 18.8125,246.8125 Q18.8125,248.9063 19.5,249.9844 Q20.1875,251.0469 21.5313,251.0469 Q22.1563,251.0469 22.75,250.7813 Q23.3438,250.5 23.9688,249.9219 L23.9688,252.6406 Z "/><text fill="#000000" font-family="sans-serif" font-size="12" lengthAdjust="spacingAndGlyphs" textLength="103" x="35" y="251.1543">ChangeManager</text><line style="stroke: #A80036; stroke-width: 1.5;" x1="7" x2="140" y1="263" y2="263"/><line style="stroke: #A80036; stroke-width: 1.5;" x1="7" x2="140" y1="271" y2="271"/><text fill="#000000" font-family="sans-serif" font-size="11" lengthAdjust="spacingAndGlyphs" textLength="118" x="12" y="285.2104">modify_connectivity()</text><!--link Reaction to HAT--><path d="M263.76,483.72 C256,498.39 246.52,516.3 238.09,532.23 " fill="none" id="Reaction-HAT" style="stroke: #A80036; stroke-width: 1.0;"/><polygon fill="none" points="244.22,535.6,228.68,550,231.85,529.05,244.22,535.6" style="stroke: #A80036; stroke-width: 1.0;"/><!--link Reaction to HomolyticBreak--><path d="M295.48,483.72 C303.37,498.39 313.01,516.3 321.57,532.23 " fill="none" id="Reaction-HomolyticBreak" style="stroke: #A80036; stroke-width: 1.0;"/><polygon fill="none" points="327.82,529.07,331.13,550,315.49,535.7,327.82,529.07" style="stroke: #A80036; stroke-width: 1.0;"/><!--link Config to RunManager--><path d="M279.5,107.14 C279.5,125.12 279.5,146.16 279.5,166.79 " fill="none" id="Config-RunManager" style="stroke: #A80036; stroke-width: 1.0;"/><!--link RunManager to GROMACS_CLI--><path d="M382.86,261.5 C394.32,261.5 405.78,261.5 417.24,261.5 " fill="none" id="RunManager-GROMACS_CLI" style="stroke: #A80036; stroke-width: 1.0;"/><!--link RunManager to Reaction--><path d="M279.5,356.14 C279.5,380.2 279.5,404.35 279.5,422.39 " fill="none" id="RunManager-Reaction" style="stroke: #A80036; stroke-width: 1.0;"/><!--link ConversionRecipe to Reaction--><path d="M180.31,453 C191.8,453 203.3,453 214.79,453 " fill="none" id="ConversionRecipe-Reaction" style="stroke: #A80036; stroke-width: 1.0;"/><!--link ChangeManager to RunManager--><path d="M141.09,261.5 C152.81,261.5 164.52,261.5 176.24,261.5 " fill="none" id="ChangeManager-RunManager" style="stroke: #A80036; stroke-width: 1.0;"/><!--
@startuml
class           RunManager{
config : Config
tasks : Queue
state
file history
chosen_recipe
run()
run_MD()
query_reactions()
decide_reaction()
execute_recipe(ConversionRecipe)
next()
}
class          Config{
file paths
task sequence
...
__init__()
}
class           ConversionRecipe{
type
atom_idx
}

abstract class           Reaction{
get_reaction_result()
}
class           HAT{
}
class           HomolyticBreak{
}
class           ChangeManager{
modify_connectivity()
}

package GROMACS{
interface GROMACS_CLI{
}
}

Reaction - -|> HAT
Reaction - -|> HomolyticBreak
Config - - RunManager
RunManager -right- GROMACS_CLI 
RunManager - - Reaction 
ConversionRecipe - Reaction
ChangeManager - RunManager
@enduml

PlantUML version 1.2018.13(Mon Nov 26 18:11:51 CET 2018)
(GPL source distribution)
Java Runtime: OpenJDK Runtime Environment
JVM: OpenJDK 64-Bit Server VM
Java Version: 11.0.15+10-Ubuntu-0ubuntu0.20.04.1
Operating System: Linux
OS Version: 5.4.0-122-generic
Default Encoding: UTF-8
Language: en
Country: US
--></g></svg>